<svg width="552" height="530" viewBox="0 0 552 530" fill="none" xmlns="http://www.w3.org/2000/svg">
<g clip-path="url(#clip0_155_2139)">
<path d="M41.7198 178C41.7198 176.906 41.8629 174 41.8629 172.775C41.8629 167.471 39.976 165.074 35.0441 164.93C32.7278 164.787 31.3484 163.406 31.3484 161.451C31.3484 159.483 32.7278 158.115 35.0441 157.959C39.976 157.737 41.8629 155.418 41.8629 150.036C41.8629 148.798 41.7198 145.892 41.7198 144.811C41.7198 137.761 44.6998 133.266 55.93 130.79C58.1813 130.282 59.925 131.663 59.925 133.774C59.925 135.52 58.7669 136.458 57.895 136.758C50.8549 138.934 49.8399 141.188 49.8399 146.127C49.8399 147.586 49.9831 149.971 49.9831 151.496C49.9831 157.164 47.2243 159.927 42.4355 161.451C47.3024 163.054 49.9831 165.738 49.9831 171.407C49.9831 172.931 49.8399 175.329 49.8399 176.775C49.8399 181.714 50.8549 183.968 57.895 186.144C58.7669 186.431 59.925 187.382 59.925 189.128C59.925 191.239 58.1813 192.621 55.93 192.112C44.6868 189.624 41.7198 185.115 41.7198 178Z" fill="#EBEBEB"/>
<path d="M84.2204 144.798C84.2204 145.892 84.0772 148.798 84.0772 150.023C84.0772 155.392 86.0292 157.724 90.9741 157.946C93.2254 158.089 94.6048 159.47 94.6048 161.438C94.6048 163.393 93.2254 164.774 90.9741 164.917C86.0422 165.061 84.0772 167.458 84.0772 172.762C84.0772 174 84.2204 176.906 84.2204 177.987C84.2204 185.102 81.2404 189.611 70.0101 192.073C67.7589 192.582 66.0151 191.2 66.0151 189.089C66.0151 187.343 67.1733 186.405 68.1232 186.105C75.0852 183.929 76.1002 181.675 76.1002 176.736C76.1002 175.277 75.9571 172.892 75.9571 171.368C75.9571 165.699 78.7159 162.937 83.5047 161.412C78.6378 159.809 75.9571 157.125 75.9571 151.457C75.9571 149.932 76.1002 147.534 76.1002 146.088C76.1002 141.149 75.0852 138.895 68.1232 136.719C67.1863 136.432 66.0151 135.481 66.0151 133.735C66.0151 131.624 67.7589 130.242 70.0101 130.751C81.2404 133.253 84.2204 137.761 84.2204 144.798Z" fill="#EBEBEB"/>
<path d="M223.928 83.4099C225.62 85.169 225.62 87.8012 223.928 89.4952C223.043 90.3031 222.041 90.7071 220.961 90.7071C219.816 90.7071 218.736 90.3031 217.851 89.4952L198.878 70.2358C198.67 70.1706 198.605 70.0273 198.54 69.8318C198.475 69.7667 198.332 69.7015 198.332 69.7015C198.201 69.493 198.201 69.3627 198.123 69.1672C197.993 69.1021 197.915 68.9587 197.915 68.8936C197.85 68.7633 197.85 68.5548 197.785 68.4896C197.785 68.2812 197.655 68.216 197.655 68.1508C197.655 67.9423 197.655 67.812 197.655 67.6817C197.655 67.5514 197.59 67.4732 197.59 67.2778C197.59 67.2126 197.655 67.0041 197.655 66.939C197.655 66.8087 197.655 66.6002 197.655 66.4699C197.655 66.3396 197.785 66.2614 197.785 66.1962C197.85 65.9877 197.85 65.8574 197.915 65.662C197.915 65.5968 197.98 65.5968 197.98 65.5317C198.11 65.3232 198.188 65.0626 198.319 64.9192C198.319 64.9192 198.319 64.7889 198.449 64.7889C198.514 64.6586 198.657 64.4501 198.852 64.3198L217.825 45.0473C219.517 43.4315 222.276 43.4315 223.902 45.0473C225.594 46.7413 225.594 49.4387 223.902 51.1327L207.896 67.2908L223.928 83.4099Z" fill="#EBEBEB"/>
<path d="M241.131 85.573L257.671 46.155C258.478 44.2655 260.638 43.3794 262.603 44.2004C264.425 44.9431 265.297 47.1714 264.49 48.9957L247.95 88.4789C247.339 89.8992 245.92 90.7072 244.502 90.7072C244.098 90.7072 243.552 90.642 243.148 90.4335C241.209 89.7038 240.325 87.4755 241.131 85.573Z" fill="#EBEBEB"/>
<path d="M297.179 69.6885C297.179 69.6885 297.179 69.7537 297.114 69.7537C296.983 69.884 296.84 70.0925 296.645 70.2228L277.672 89.4953C276.865 90.3032 275.72 90.7071 274.64 90.7071C273.495 90.7071 272.48 90.3032 271.595 89.4953C269.903 87.8013 269.903 85.169 271.595 83.4099L287.601 67.2517L271.595 51.0936C269.903 49.3996 269.903 46.7022 271.595 45.0082C273.209 43.3924 275.98 43.3924 277.672 45.0082L296.645 64.2807C296.853 64.411 296.983 64.6195 297.114 64.7498C297.179 64.7498 297.179 64.8802 297.179 64.8802C297.309 65.1538 297.452 65.2841 297.517 65.4926C297.517 65.5577 297.582 65.5578 297.582 65.6229C297.647 65.8314 297.647 65.9617 297.79 66.2354C297.79 66.3005 297.855 66.3005 297.855 66.4438C297.855 66.5742 297.855 66.7826 297.855 66.9129C297.855 66.9781 297.92 67.1866 297.92 67.2517C297.92 67.3169 297.855 67.5254 297.855 67.5905C297.855 67.799 297.855 67.9293 297.855 68.1248C297.855 68.19 297.79 68.19 297.79 68.2551C297.66 68.5288 297.66 68.7242 297.582 68.8676C297.582 68.9327 297.517 68.9327 297.517 69.0761C297.439 69.2194 297.309 69.4149 297.179 69.6885Z" fill="#EBEBEB"/>
<path d="M486.753 336.923L504.138 336.558L512.701 336.415C515.551 336.35 518.374 336.363 521.224 336.35L520.639 336.936L520.574 322.355L521.224 323.006L503.995 322.928C498.256 322.915 492.504 322.785 486.766 322.72L487.117 322.368C487.091 324.753 487 327.15 486.948 329.587L486.753 336.923ZM486.753 336.923L486.571 329.704C486.505 327.268 486.427 324.805 486.401 322.342V321.99H486.766C492.504 321.925 498.256 321.782 503.995 321.782L521.224 321.703H521.875V322.355L521.81 336.936V337.523H521.237C518.335 337.497 515.42 337.51 512.532 337.458L503.865 337.314L486.753 336.923Z" fill="#EBEBEB"/>
<path d="M505.973 355.31L523.358 354.945L531.921 354.801C534.771 354.736 537.595 354.749 540.444 354.736L539.859 355.323L539.794 340.741L540.444 341.393L523.215 341.315C517.476 341.302 511.725 341.171 505.986 341.106L506.337 340.754C506.311 343.139 506.22 345.537 506.168 347.973L505.973 355.31ZM505.973 355.31L505.791 348.091C505.726 345.654 505.648 343.191 505.622 340.728V340.376H505.986C511.725 340.311 517.476 340.168 523.215 340.168L540.444 340.09H541.095V340.741L541.03 355.323V355.909H540.458C537.556 355.883 534.641 355.896 531.752 355.844L523.085 355.701L505.973 355.31Z" fill="#EBEBEB"/>
<path d="M467.532 355.31L484.918 354.945L493.48 354.801C496.33 354.736 499.154 354.749 502.004 354.736L501.418 355.323L501.353 340.741L502.004 341.393L484.775 341.315C479.036 341.302 473.284 341.171 467.546 341.106L467.897 340.754C467.871 343.139 467.78 345.537 467.728 347.973L467.532 355.31ZM467.532 355.31L467.35 348.091C467.285 345.654 467.207 343.191 467.181 340.728V340.376H467.546C473.284 340.311 479.036 340.168 484.775 340.168L502.004 340.09H502.655V340.741L502.59 355.323V355.909H502.017C499.115 355.883 496.2 355.896 493.311 355.844L484.645 355.701L467.532 355.31Z" fill="#EBEBEB"/>
<path d="M23.4104 355.31L40.7959 354.945L49.3584 354.801C52.2083 354.736 55.0321 354.749 57.882 354.736L57.2964 355.323L57.2313 340.741L57.882 341.393L40.6527 341.315C34.914 341.302 29.1622 341.171 23.4234 341.106L23.7748 340.754C23.7488 343.139 23.6577 345.537 23.6056 347.973L23.4104 355.31ZM23.4104 355.31L23.2283 348.091C23.1632 345.654 23.0851 343.191 23.0591 340.728V340.376H23.4234C29.1622 340.311 34.914 340.168 40.6527 340.168L57.882 340.09H58.5326V340.741L58.4676 355.323V355.909H57.895C54.9931 355.883 52.0782 355.896 49.1893 355.844L40.5226 355.701L23.4104 355.31Z" fill="#EBEBEB"/>
<path d="M23.4104 27.9379L40.7959 27.5731L49.3584 27.4297C52.2083 27.3646 55.0321 27.3776 57.882 27.3516L57.2964 27.9379L57.2313 13.3565L57.882 14.0081L40.6527 13.9299C34.914 13.9168 29.1622 13.7865 23.4234 13.7214L23.7748 13.3696C23.7488 15.7542 23.6577 18.1518 23.6056 20.5886L23.4104 27.9379ZM23.4104 27.9379L23.2283 20.7189C23.1632 18.2822 23.0851 15.8193 23.0591 13.3565V13.0047H23.4234C29.1622 12.9395 34.914 12.7962 40.6527 12.7962L57.882 12.718H58.5326V13.3696L58.4676 27.951V28.5374H57.895C54.9931 28.5113 52.0782 28.5243 49.1893 28.4722L40.5226 28.3289L23.4104 27.9379Z" fill="#EBEBEB"/>
<path d="M4.17728 46.3243L21.5627 45.9594L30.1253 45.8161C32.9751 45.7509 35.799 45.764 38.6488 45.7379L38.0632 46.3243L37.9982 31.7429L38.6488 32.3944L21.4065 32.3162C15.6678 32.3162 9.91603 32.1729 4.17728 32.1077L4.52863 31.7559C4.50261 34.1405 4.41151 36.5382 4.35946 38.9749L4.17728 46.3243ZM4.17728 46.3243L3.9951 39.1053C3.93003 36.6685 3.85195 34.2057 3.82593 31.7429V31.391H4.19029C9.92904 31.3259 15.6808 31.1826 21.4196 31.1826L38.6488 31.1044H39.2995V31.7559L39.2344 46.3373V46.9237H38.6618C35.7599 46.8976 32.845 46.9107 29.9561 46.8455L21.2894 46.7022L4.17728 46.3243Z" fill="#EBEBEB"/>
<path d="M505.973 27.951L523.358 27.5861L531.921 27.4428C534.771 27.3776 537.595 27.3907 540.444 27.3777L539.859 27.964L539.794 13.3826L540.444 14.0342L523.215 13.956C517.476 13.9429 511.725 13.8126 505.986 13.7475L506.337 13.3956C506.311 15.7803 506.22 18.1779 506.168 20.6147L505.973 27.951ZM505.973 27.951L505.791 20.732C505.726 18.2952 505.648 15.8324 505.622 13.3696V13.0178H505.986C511.725 12.9526 517.476 12.8093 523.215 12.8093L540.444 12.7311H541.095V13.3826L541.03 27.964V28.5504H540.458C537.556 28.5244 534.641 28.5374 531.752 28.4722L523.085 28.3289L505.973 27.951Z" fill="#EBEBEB"/>
<path d="M319.431 125.76L302.046 126.125L293.483 126.268C290.633 126.333 287.809 126.32 284.959 126.346L285.545 125.76L285.61 140.341L284.959 139.69L302.189 139.768C307.928 139.768 313.679 139.911 319.418 139.976L319.067 140.328C319.093 137.944 319.184 135.546 319.236 133.109L319.431 125.76ZM319.431 125.76L319.613 132.979C319.678 135.416 319.756 137.865 319.782 140.341V140.693H319.418C313.679 140.758 307.928 140.902 302.189 140.902L284.959 140.98H284.309V140.328L284.374 125.747V125.16H284.946C287.848 125.186 290.763 125.173 293.652 125.239L302.319 125.382L319.431 125.76Z" fill="#EBEBEB"/>
<path d="M300.211 107.373L282.825 107.738L274.263 107.882C271.413 107.947 268.589 107.934 265.739 107.96L266.325 107.373L266.39 121.955L265.739 121.303L282.969 121.382C288.707 121.382 294.459 121.525 300.198 121.59L299.846 121.942C299.872 119.557 299.964 117.16 300.016 114.723L300.211 107.373ZM300.211 107.373L300.393 114.593C300.458 117.029 300.536 119.492 300.562 121.955V122.307H300.198C294.459 122.372 288.707 122.515 282.969 122.515L265.739 122.593H265.089V121.942L265.154 107.36V106.774H265.726C268.628 106.8 271.543 106.787 274.432 106.852L283.099 106.996L300.211 107.373Z" fill="#EBEBEB"/>
<path d="M498.113 147.547V0" stroke="#C7C7C7" stroke-miterlimit="10"/>
<path d="M444.239 199.54L448.572 209.078H547.667L551.987 199.54L509.799 170.299H486.427L444.239 199.54Z" fill="#EBEBEB"/>
<path d="M483.499 142.126L486.427 170.299H509.799L512.727 142.126H483.499Z" fill="#DBDBDB"/>
<path d="M444.252 199.553L448.585 209.092H547.68L552 199.553H444.252Z" fill="#DBDBDB"/>
<path d="M373.695 77.6763V0" stroke="#C7C7C7" stroke-miterlimit="10"/>
<path d="M319.821 129.682L324.155 139.221H423.249L427.569 129.682L385.381 100.441H362.01L319.821 129.682Z" fill="#EBEBEB"/>
<path d="M359.082 72.2686L362.009 100.441H385.381L388.309 72.2686H359.082Z" fill="#DBDBDB"/>
<path d="M319.821 129.682L324.155 139.221H423.249L427.569 129.682H319.821Z" fill="#DBDBDB"/>
<path d="M56.5417 483.532V319.775L21.7578 272.239V183.199" stroke="#EBEBEB" stroke-miterlimit="10"/>
<path d="M24.8419 180.15C24.8419 181.857 23.4625 183.251 21.7448 183.251C20.0401 183.251 18.6477 181.87 18.6477 180.15C18.6477 178.443 20.0271 177.049 21.7448 177.049C23.4625 177.062 24.8419 178.443 24.8419 180.15Z" stroke="#EBEBEB" stroke-miterlimit="10"/>
<path d="M47.5758 483.532V325.521L12.792 277.985V215.763" stroke="#EBEBEB" stroke-miterlimit="10"/>
<path d="M15.889 212.727C15.889 214.434 14.5096 215.828 12.7919 215.828C11.0872 215.828 9.69482 214.447 9.69482 212.727C9.69482 211.02 11.0742 209.626 12.7919 209.626C14.4966 209.639 15.889 211.02 15.889 212.727Z" stroke="#EBEBEB" stroke-miterlimit="10"/>
<path d="M65.1694 483.532V266.687" stroke="#EBEBEB" stroke-miterlimit="10"/>
<path d="M68.2665 263.586C68.2665 265.293 66.8871 266.687 65.1694 266.687C63.4647 266.687 62.0723 265.306 62.0723 263.586C62.0723 261.879 63.4516 260.485 65.1694 260.485C66.8741 260.498 68.2665 261.879 68.2665 263.586Z" stroke="#EBEBEB" stroke-miterlimit="10"/>
<path d="M73.4846 483.532V373.318L97.0903 328.714V248.757" stroke="#EBEBEB" stroke-miterlimit="10"/>
<path d="M100.187 245.656C100.187 247.363 98.808 248.757 97.0903 248.757C95.3856 248.757 93.9932 247.376 93.9932 245.656C93.9932 243.949 95.3725 242.554 97.0903 242.554C98.808 242.567 100.187 243.949 100.187 245.656Z" stroke="#EBEBEB" stroke-miterlimit="10"/>
<path d="M81.748 483.532V378.087L109.583 328.779V276.109" stroke="#EBEBEB" stroke-miterlimit="10"/>
<path d="M112.667 273.02C112.667 274.727 111.288 276.122 109.57 276.122C107.865 276.122 106.473 274.74 106.473 273.02C106.473 271.313 107.852 269.919 109.57 269.919C111.288 269.919 112.667 271.313 112.667 273.02Z" stroke="#EBEBEB" stroke-miterlimit="10"/>
<path d="M488.08 483.532V397.959L522.864 350.423V300.476" stroke="#EBEBEB" stroke-miterlimit="10"/>
<path d="M519.78 297.427C519.78 299.134 521.159 300.528 522.877 300.528C524.582 300.528 525.974 299.147 525.974 297.427C525.974 295.72 524.595 294.326 522.877 294.326C521.159 294.339 519.78 295.72 519.78 297.427Z" stroke="#EBEBEB" stroke-miterlimit="10"/>
<path d="M497.033 483.532V403.706L531.83 356.17V333.04" stroke="#EBEBEB" stroke-miterlimit="10"/>
<path d="M528.733 330.004C528.733 331.711 530.112 333.105 531.83 333.105C533.535 333.105 534.927 331.724 534.927 330.004C534.927 328.297 533.548 326.903 531.83 326.903C530.112 326.916 528.733 328.297 528.733 330.004Z" stroke="#EBEBEB" stroke-miterlimit="10"/>
<path d="M479.453 483.532V344.872" stroke="#EBEBEB" stroke-miterlimit="10"/>
<path d="M476.355 341.771C476.355 343.478 477.735 344.872 479.453 344.872C481.157 344.872 482.55 343.491 482.55 341.771C482.55 340.051 481.17 338.669 479.453 338.669C477.748 338.682 476.355 340.064 476.355 341.771Z" stroke="#EBEBEB" stroke-miterlimit="10"/>
<path d="M471.137 483.532V412.41L447.518 367.806V287.849" stroke="#EBEBEB" stroke-miterlimit="10"/>
<path d="M444.434 284.748C444.434 286.455 445.814 287.849 447.531 287.849C449.236 287.849 450.629 286.468 450.629 284.748C450.629 283.041 449.249 281.647 447.531 281.647C445.814 281.66 444.434 283.041 444.434 284.748Z" stroke="#EBEBEB" stroke-miterlimit="10"/>
<path d="M462.874 483.532V417.18L435.039 367.871V315.201" stroke="#EBEBEB" stroke-miterlimit="10"/>
<path d="M431.942 312.113C431.942 313.82 433.321 315.214 435.039 315.214C436.744 315.214 438.136 313.833 438.136 312.113C438.136 310.406 436.757 309.011 435.039 309.011C433.334 309.011 431.942 310.406 431.942 312.113Z" stroke="#EBEBEB" stroke-miterlimit="10"/>
<path d="M272.311 530C417.156 530 534.576 520.63 534.576 509.073C534.576 497.515 417.156 488.145 272.311 488.145C127.466 488.145 10.0461 497.515 10.0461 509.073C10.0461 520.63 127.466 530 272.311 530Z" fill="#EBEBEB"/>
<path d="M17.8408 483.741H175.455L144.028 300.685H26.1692L17.8408 483.741Z" fill="#DBDBDB"/>
<path d="M17.8408 483.741H31.6607L39.4164 300.685H26.1692L17.8408 483.741Z" fill="#A6A6A6"/>
<path d="M0 483.741L68.0712 483.428L136.155 483.311L272.311 483.089L408.466 483.311L476.537 483.428L544.622 483.741L476.537 484.067L408.466 484.171L272.311 484.392L136.155 484.171L68.0712 484.053L0 483.741Z" fill="#263238"/>
<path d="M294.459 482.112H285.115V488.223H294.459V482.112Z" fill="#455A64"/>
<path d="M306.587 481.708H297.244V487.819H306.587V481.708Z" fill="#455A64"/>
<path d="M318.702 481.304H309.359V487.416H318.702V481.304Z" fill="#455A64"/>
<path d="M330.83 480.9H321.487V487.012H330.83V480.9Z" fill="#455A64"/>
<path d="M342.945 480.496H333.602V486.608H342.945V480.496Z" fill="#455A64"/>
<path d="M355.074 480.092H345.73V486.204H355.074V480.092Z" fill="#455A64"/>
<path d="M367.189 479.688H357.845V485.8H367.189V479.688Z" fill="#455A64"/>
<path d="M379.317 479.284H369.973V485.396H379.317V479.284Z" fill="#455A64"/>
<path d="M391.432 478.88H382.089V484.992H391.432V478.88Z" fill="#455A64"/>
<path d="M393.722 491.729H282.825V484.301L393.722 481.2V491.729Z" fill="#37474F"/>
<path d="M501.965 462.409H318.885L348.008 325.925H531.075L501.965 462.409Z" fill="#455A64"/>
<path d="M508.732 462.409H325.664L354.774 325.925H537.855L508.732 462.409Z" fill="#37474F"/>
<path d="M446.36 397.021C445.371 403.276 439.502 408.358 433.243 408.358C426.997 408.358 422.729 403.289 423.718 397.021C424.707 390.766 430.575 385.684 436.835 385.684C443.081 385.684 447.349 390.766 446.36 397.021Z" fill="#263238"/>
<path d="M423.379 351.935L418.968 372.654H414.973L419.384 351.935H423.379Z" fill="#263238"/>
<path d="M431.903 351.935L427.491 372.654H423.483L427.895 351.935H431.903Z" fill="#263238"/>
<path d="M440.413 351.935L436.002 372.654H432.007L436.418 351.935H440.413Z" fill="#263238"/>
<path d="M448.937 351.935L444.526 372.654H440.518L444.929 351.935H448.937Z" fill="#263238"/>
<path d="M457.447 351.935L453.036 372.654H449.041L453.452 351.935H457.447Z" fill="#263238"/>
<path d="M465.971 351.935L461.56 372.654H457.552L461.963 351.935H465.971Z" fill="#263238"/>
<path d="M454.35 498.049H364.313V491.051L454.35 488.132V498.049Z" fill="#455A64"/>
<path d="M478.841 498.049H430.497L401.374 421.571H449.717L478.841 498.049Z" fill="#455A64"/>
<path d="M486.792 498.049H438.448L409.338 421.571H457.682L486.792 498.049Z" fill="#263238"/>
<path d="M303.256 499.912C303.256 499.912 218.346 499.912 210.421 499.912C202.496 499.912 213.96 477.33 242.875 468.651C271.79 459.986 312.378 491.442 303.256 499.912Z" fill="#37474F"/>
<path d="M266.832 499.912C266.897 497.358 267.366 494.804 268.121 492.341C268.862 489.878 269.929 487.494 271.257 485.265C272.571 483.024 274.25 481.004 276.176 479.271C278.05 477.46 280.366 476.222 282.682 475.193C281.68 476.001 280.548 476.574 279.637 477.46L278.193 478.672L276.878 480.001C275.174 481.812 273.612 483.767 272.376 485.93C271.088 488.067 270.007 490.321 269.084 492.667C268.186 495.012 267.392 497.423 266.832 499.912Z" fill="#263238"/>
<path d="M277.828 478.424C280.587 479.284 283.242 480.444 285.831 481.721C288.421 482.998 290.919 484.483 293.288 486.164C295.643 487.858 297.894 489.748 299.755 492.028C300.666 493.175 301.512 494.387 302.15 495.716C302.761 497.045 303.217 498.479 303.243 499.925C302.918 498.518 302.358 497.202 301.577 496.016C300.848 494.817 299.951 493.709 298.988 492.693C297.036 490.66 294.836 488.862 292.52 487.233C290.217 485.565 287.783 484.08 285.337 482.607C284.114 481.877 282.864 481.174 281.602 480.496C280.379 479.753 279.091 479.102 277.828 478.424Z" fill="#263238"/>
<path d="M142.05 215.411C137.639 206.824 121.776 188.998 102.907 198.537C75.9702 212.154 86.9662 268.329 77.4797 289.387C60.3025 327.541 67.9021 358.528 90.3365 357.642C115.465 356.652 131.484 324.935 115.53 270.258C105.549 236.065 111.053 218.174 118.171 217.314C125.29 216.454 131.406 224.09 131.406 224.09L142.05 215.411Z" fill="#263238"/>
<path d="M140.15 212.245C137.6 208.401 134.555 204.87 131.119 201.729C127.671 198.615 123.65 195.97 119.095 194.484C114.58 192.946 109.479 192.829 104.859 194.289C100.291 195.709 96.0362 198.198 92.6267 201.612C89.2303 205.052 86.7969 209.3 85.1703 213.731C83.5697 218.187 82.6067 222.8 82.0471 227.426C81.0581 236.704 81.4876 245.995 82.5677 255.142C82.5026 245.93 82.7629 236.717 84.0642 227.699C84.8449 223.217 85.8209 218.786 87.4736 214.617C89.0872 210.447 91.3515 206.551 94.4746 203.449C97.5326 200.309 101.437 198.028 105.614 196.634C109.739 195.201 114.254 195.227 118.51 196.426C122.765 197.638 126.76 199.892 130.312 202.706C132.134 204.062 133.826 205.612 135.479 207.202C137.079 208.818 138.641 210.512 140.15 212.245Z" fill="#263238"/>
<path d="M110.494 251.285C111.691 256.81 113.5 262.192 115.1 267.6C116.779 272.994 118.432 278.376 119.928 283.797C121.386 289.218 122.739 294.678 123.676 300.19C124.626 305.689 125.238 311.253 125.107 316.778C125.016 322.29 124.157 327.815 122.049 332.845C119.902 337.822 116.714 342.527 112.953 346.501C109.153 350.462 104.482 353.629 99.2505 355.466C96.6479 356.391 93.9151 357.017 91.1303 357.238C89.7379 357.356 88.3456 357.382 86.9401 357.29C85.5477 357.199 84.1293 357.069 82.802 356.587C85.4176 357.72 88.3325 357.929 91.1564 357.916C94.0062 357.877 96.8561 357.447 99.6279 356.665C102.387 355.857 105.041 354.684 107.54 353.225C110.025 351.739 112.303 349.941 114.385 347.934C116.467 345.928 118.328 343.699 119.98 341.341L121.19 339.542L122.31 337.692C123.051 336.454 123.741 335.138 124.314 333.809C126.643 328.427 127.554 322.576 127.697 316.83C127.853 305.272 125.211 294.039 121.867 283.224C120.188 277.803 118.276 272.486 116.311 267.183C114.294 261.905 112.264 256.654 110.494 251.285Z" fill="#263238"/>
<path d="M143.716 215.112C143.326 212.493 140.866 209.456 139.096 209.287C137.327 209.118 125.758 216.702 125.251 220.103C124.743 223.504 130.807 225.367 130.807 225.367L143.716 215.112Z" fill="#FF6300"/>
<path d="M144.848 336.389C183.224 359.597 237.098 383.495 256.032 379.977C271.309 377.136 328.501 335.477 331.364 333.092C338.404 327.137 304.817 273.946 296.32 278.95C285.61 285.256 244.775 324.974 240.13 324.987C235.302 324.987 200.739 320.361 161.101 314.615C133.722 310.64 121.034 322.003 144.848 336.389Z" fill="#FEB988"/>
<path d="M305.937 260.941C315.098 256.25 325.235 250.138 335.945 248.914C346.654 247.689 357.403 260.628 357.95 264.681C358.483 268.72 357.807 294.495 347.123 295.915C336.439 297.336 340.304 277.099 339.614 274.936C338.912 272.773 338.131 269.984 336.14 270.453C334.149 270.936 301.096 292.397 301.096 292.397L305.937 260.941Z" fill="#FEB988"/>
<path d="M306.822 262.322C307.42 262.244 334.552 247.115 345.262 245.89C355.972 244.666 366.721 257.605 367.267 261.658C367.801 265.697 367.124 291.472 356.44 292.892C345.757 294.313 349.621 274.076 348.932 271.913C348.229 269.75 347.448 266.961 345.457 267.443C343.466 267.926 310.413 289.387 310.413 289.387L306.822 262.322Z" fill="#FEB988"/>
<path d="M352.64 292.019C351.092 290.508 350.532 287.993 350.025 285.934C349.465 283.693 349.348 281.347 349.504 279.054C349.647 277.06 350.22 275.001 350.025 272.994C349.843 271.131 348.88 269.02 347.786 267.535C346.758 266.14 345.262 266.87 343.974 267.522C342.074 268.486 340.278 269.737 338.508 270.923C336.595 272.213 334.721 273.542 332.835 274.858C330.896 276.213 328.84 277.503 327.083 279.106C326.953 279.223 327.083 279.471 327.252 279.38C329.035 278.48 330.674 277.295 332.353 276.213C334.253 274.988 336.166 273.776 338.092 272.591C339.888 271.483 341.631 270.284 343.453 269.203C344.091 268.825 345.353 267.912 346.16 267.978C347.006 268.056 347.669 270.01 347.943 270.636C348.788 272.617 348.645 274.402 348.346 276.474C348.06 278.467 347.917 280.474 348.021 282.481C348.125 284.331 348.45 286.286 349.205 287.993C349.934 289.635 351.287 290.86 352.367 292.254C352.497 292.462 352.81 292.189 352.64 292.019Z" fill="#263238"/>
<path d="M276.657 294.925C276.657 294.925 302.67 263.951 308.123 257.761C319.054 245.343 368.308 217.093 375.465 215.359C382.622 213.626 387.229 228.169 353.929 248.366C336.387 259.012 334.487 270.141 335.632 276.018C336.777 281.894 343.883 292.176 353.799 290.586C363.714 288.996 368.23 273.594 377.157 270.753C386.084 267.912 382.284 285.504 377.118 296.046C371.952 306.601 361.307 316.152 353.135 320.531C344.963 324.909 319.861 339.946 319.861 339.946L276.657 294.925Z" fill="#FEB988"/>
<path d="M365.211 281.92C361.854 285.322 358.106 289.648 353.2 290.495C348.125 291.368 344.377 288.501 341.462 284.657C338.521 280.787 336.491 276.187 337.025 271.235C337.493 266.779 339.562 262.609 342.347 259.156C345.808 254.882 350.116 251.468 354.631 248.379C354.826 248.236 354.605 247.949 354.384 248.08C350.077 250.738 336.621 258.478 335.45 271.444C334.969 276.747 337.129 281.126 340.083 285.113C342.815 288.788 346.537 292.176 351.404 291.928C357.351 291.615 361.762 286.155 365.51 282.025C365.692 281.842 365.393 281.751 365.211 281.92Z" fill="#263238"/>
<path d="M235.224 320.909L190.797 363.141C190.797 363.141 161.271 350.019 139.083 334.213C116.896 318.407 139.786 308.634 176.418 312.478C213.063 316.322 235.224 320.909 235.224 320.909Z" fill="#FF6300"/>
<path d="M180.205 358.111C180.009 358.02 179.814 357.916 179.619 357.825C179.619 357.734 179.606 357.655 179.606 357.564C179.32 354.007 178.877 350.397 177.511 347.127C176.821 345.511 175.806 343.999 174.362 343.048C173.646 342.566 172.813 342.292 171.967 342.123C171.121 341.992 170.224 342.045 169.339 342.031C165.773 342.136 162.273 342.983 158.902 344.129C157.978 344.455 157.054 344.807 156.143 345.185C155.974 345.081 155.805 344.989 155.636 344.885C156.664 344.455 157.692 344.051 158.733 343.673C162.143 342.501 165.695 341.641 169.326 341.51C170.224 341.523 171.122 341.471 172.058 341.614C172.969 341.784 173.867 342.084 174.648 342.605C176.223 343.634 177.29 345.25 178.005 346.918C179.424 350.293 179.879 353.942 180.166 357.512C180.179 357.707 180.192 357.916 180.205 358.111ZM210.616 316.765C210.551 316.947 210.486 317.117 210.421 317.299C208.794 321.638 206.751 326.004 203.212 329.053C201.416 330.499 199.256 331.516 196.965 331.763C194.675 332.037 192.346 331.477 190.264 330.486C186.06 328.479 182.612 325.196 179.333 321.899C176.145 318.654 173.126 315.24 169.976 311.956H169.963C169.885 311.943 169.807 311.93 169.729 311.93C172.891 315.279 175.936 318.746 179.164 322.068C182.43 325.391 185.865 328.701 190.134 330.786C192.242 331.789 194.636 332.376 197.004 332.102C199.36 331.841 201.585 330.799 203.446 329.326C207.064 326.199 209.12 321.782 210.785 317.442C210.863 317.234 210.941 317.038 211.006 316.83C210.876 316.804 210.746 316.778 210.616 316.765ZM187.154 361.46C189.47 362.555 190.797 363.141 190.797 363.141L190.862 363.089C189.639 362.529 188.39 361.995 187.154 361.46Z" fill="white"/>
<path d="M179.801 355.401C188.767 345.641 198.423 336.493 208.222 327.567C210.993 325.039 213.83 322.577 216.719 320.179C216.797 320.114 216.914 320.205 216.849 320.296C212.269 325.078 207.506 329.665 202.756 334.291C197.993 338.917 193.192 343.517 188.312 348.013C185.553 350.554 182.794 353.095 179.983 355.57C179.866 355.675 179.684 355.518 179.801 355.401Z" fill="#263238"/>
<path opacity="0.1" d="M209.263 345.589L190.797 363.141C190.797 363.141 161.284 350.032 139.097 334.226C130.065 327.789 128.504 322.355 132.291 318.446L209.263 345.589Z" fill="black"/>
<path d="M206.283 483.975H57.7649C57.7649 483.975 90.0242 359.219 119.889 324.101C120.553 323.293 121.242 322.524 121.932 321.808C122.075 321.638 122.192 321.521 122.336 321.378C124.912 318.68 127.593 316.66 130.313 315.201C130.833 314.914 131.367 314.654 131.913 314.419C143.417 309.129 155.558 313.507 164.316 321.026C167.1 323.41 198.579 364.418 201.364 380.068C203.771 393.868 194.454 408.71 194.454 408.71L206.283 483.975Z" fill="#FF6300"/>
<path d="M172.163 403.341C165.864 404.045 159.54 404.97 153.398 406.599C150.34 407.407 147.347 408.358 144.354 409.374C142.857 409.883 141.361 410.339 139.851 410.782C138.303 411.238 136.637 411.668 135.023 411.733C134.88 411.733 134.88 411.954 135.023 411.954C136.598 411.98 138.107 412.007 139.682 411.824C141.179 411.655 142.662 411.316 144.119 410.951C147.23 410.156 150.288 409.218 153.385 408.397C159.631 406.729 165.877 405.061 172.228 403.849C172.54 403.81 172.462 403.315 172.163 403.341Z" fill="#263238"/>
<path d="M187.856 408.827C182.664 408.345 177.368 408.097 172.15 408.215C169.521 408.267 166.931 408.475 164.316 408.749C163.067 408.879 161.83 409.036 160.581 409.205C159.215 409.387 157.874 409.765 156.508 409.922C156.365 409.935 156.365 410.156 156.508 410.143C157.796 410.026 159.124 410.117 160.425 410.078C161.726 410.039 163.041 409.987 164.342 409.935C166.957 409.843 169.573 409.791 172.176 409.674C177.407 409.453 182.612 409.283 187.856 409.244C188.143 409.257 188.117 408.853 187.856 408.827Z" fill="#263238"/>
<g opacity="0.1">
<path d="M157.926 388.277C158.928 388.968 159.293 390.115 158.785 390.923C158.512 391.314 158.121 391.522 157.64 391.574C157.132 391.613 156.599 391.483 156.091 391.17L144.965 383.56C144.861 383.534 144.822 383.482 144.757 383.404C144.718 383.378 144.653 383.352 144.653 383.352C144.562 383.274 144.549 383.208 144.484 383.13C144.419 383.104 144.367 383.052 144.354 383.026C144.302 382.974 144.276 382.883 144.236 382.857C144.21 382.765 144.132 382.739 144.132 382.713C144.106 382.622 144.08 382.57 144.067 382.505C144.054 382.44 144.015 382.414 143.976 382.335C143.963 382.309 143.963 382.218 143.963 382.192C143.95 382.14 143.911 382.049 143.898 381.984C143.885 381.932 143.924 381.892 143.924 381.866C143.924 381.775 143.911 381.723 143.911 381.632C143.898 381.606 143.937 381.606 143.924 381.567C143.95 381.475 143.95 381.358 143.989 381.293C143.989 381.293 143.976 381.241 144.028 381.228C144.041 381.163 144.067 381.071 144.145 381.006L149.819 371.898C150.34 371.129 151.563 371.012 152.513 371.663C153.502 372.328 153.879 373.501 153.372 374.308L148.57 381.944L157.926 388.277Z" fill="black"/>
<path d="M165.864 388.538L167.608 370.79C167.699 369.943 168.532 369.474 169.508 369.748C170.419 369.995 171.121 370.934 171.03 371.754L169.287 389.541C169.222 390.18 168.701 390.584 168.076 390.649C167.894 390.662 167.647 390.662 167.439 390.584C166.476 390.323 165.773 389.398 165.864 388.538Z" fill="black"/>
<path d="M188.429 379.43C188.429 379.43 188.442 379.456 188.403 379.456C188.364 379.521 188.338 379.612 188.26 379.677L182.586 388.786C182.339 389.164 181.896 389.385 181.415 389.437C180.907 389.476 180.4 389.346 179.892 389.033C178.903 388.369 178.539 387.222 179.033 386.388L183.835 378.739L174.466 372.367C173.477 371.702 173.1 370.53 173.607 369.722C174.102 368.953 175.325 368.849 176.301 369.487L187.427 377.097C187.531 377.149 187.622 377.227 187.7 377.28C187.726 377.28 187.752 377.332 187.752 377.332C187.856 377.449 187.934 377.501 187.986 377.579C187.999 377.605 188.025 377.605 188.039 377.631C188.091 377.723 188.117 377.775 188.221 377.892C188.234 377.918 188.26 377.918 188.273 377.983C188.286 378.048 188.325 378.127 188.338 378.192C188.351 378.218 188.403 378.309 188.416 378.335C188.429 378.361 188.429 378.452 188.429 378.478C188.455 378.57 188.481 378.622 188.507 378.713C188.52 378.739 188.481 378.739 188.494 378.778C188.468 378.895 188.507 378.987 188.494 379.052C188.507 379.078 188.468 379.078 188.494 379.143C188.481 379.221 188.455 379.312 188.429 379.43Z" fill="black"/>
</g>
<path d="M197.629 428.868C197.421 428.999 197.213 429.103 196.991 429.207L195.755 429.78C195.339 429.963 194.896 430.08 194.467 430.237C193.621 430.575 192.697 430.68 191.812 430.875C189.99 431.044 188.143 431.097 186.36 430.523C185.462 430.237 184.668 429.741 183.926 429.181C183.224 428.569 182.586 427.891 182.091 427.109C181.05 425.584 180.4 423.864 179.892 422.118C178.916 418.626 178.552 415.004 178.344 411.407C178.318 410.782 178.292 410.156 178.279 409.531C178.266 409.296 178.253 409.062 178.253 408.827C178.07 402.481 178.383 396.148 178.721 389.828C179.111 382.648 179.632 375.481 179.788 368.301C179.853 365.148 179.866 361.981 179.684 358.841C179.684 358.698 179.671 358.554 179.658 358.411C179.645 358.124 179.632 357.851 179.606 357.564C179.32 354.007 178.877 350.397 177.511 347.126C176.821 345.511 175.806 343.999 174.362 343.048C173.646 342.566 172.813 342.292 171.967 342.122C171.121 341.992 170.224 342.044 169.339 342.031C165.773 342.136 162.273 342.983 158.902 344.129C156.625 344.937 154.4 345.888 152.214 346.931L151.706 347.165C147.607 349.146 143.651 351.439 139.734 353.772C133.566 357.447 127.502 361.304 121.125 364.64C118.952 365.76 116.753 366.829 114.502 367.767C114.411 367.806 114.333 367.845 114.242 367.884C113.266 368.288 112.277 368.666 111.275 369.018C107.878 370.217 104.326 371.051 100.708 371.168C98.717 371.207 96.726 370.947 94.8261 370.386C94.8651 370.295 94.8911 370.217 94.9302 370.139C96.804 370.66 98.756 370.907 100.708 370.855C104.274 370.712 107.8 369.891 111.157 368.679C112.133 368.327 113.109 367.949 114.072 367.559C114.163 367.519 114.255 367.48 114.346 367.441C116.597 366.49 118.796 365.435 120.956 364.301C127.294 360.965 133.345 357.095 139.513 353.394C143.326 351.127 147.191 348.872 151.199 346.905C151.368 346.827 151.524 346.735 151.693 346.657C153.983 345.55 156.326 344.546 158.733 343.673C162.143 342.5 165.695 341.64 169.326 341.51C170.224 341.523 171.121 341.471 172.058 341.614C172.969 341.784 173.867 342.083 174.648 342.605C176.223 343.634 177.29 345.25 178.005 346.918C179.424 350.293 179.879 353.941 180.166 357.512C180.192 357.89 180.218 358.268 180.231 358.646C180.257 358.789 180.257 358.919 180.257 359.062C180.439 362.151 180.439 365.239 180.387 368.314C180.244 375.52 179.749 382.687 179.359 389.867C179.033 395.913 178.721 401.96 178.838 407.993C178.838 408.228 178.838 408.462 178.851 408.697C178.877 409.596 178.903 410.482 178.942 411.381C179.138 414.951 179.489 418.535 180.439 421.962C180.933 423.669 181.558 425.35 182.547 426.796C183.028 427.539 183.627 428.178 184.278 428.751C184.967 429.272 185.696 429.741 186.529 430.002C188.169 430.549 190.003 430.51 191.734 430.354C192.593 430.158 193.478 430.067 194.311 429.741C194.727 429.585 195.144 429.468 195.56 429.298L196.757 428.751C197.017 428.621 197.278 428.49 197.538 428.347L197.629 428.868ZM201.247 379.508C198.345 382.375 195.651 385.463 193.088 388.603C188.038 394.845 183.445 401.425 178.838 407.993C178.643 408.267 178.448 408.54 178.253 408.827C177.68 409.648 177.094 410.456 176.522 411.277C173.321 415.798 170.08 420.333 166.645 424.685C166.554 424.803 166.463 424.933 166.359 425.05C164.094 427.904 161.752 430.68 159.254 433.325C156.065 436.726 152.617 439.905 148.778 442.538C147.828 443.215 146.865 443.854 145.85 444.414C144.861 445.039 143.807 445.535 142.779 446.069C140.736 447.137 138.394 447.567 136.155 447.085C133.93 446.577 131.926 445.339 130.209 443.788C128.491 442.264 126.981 440.466 125.615 438.589C122.895 434.823 120.631 430.719 118.536 426.549C114.359 418.183 110.806 409.518 107.136 400.917C103.428 392.33 99.732 383.691 95.0863 375.533C94.6309 374.739 94.1624 373.957 93.6809 373.175C93.5898 373.396 93.4987 373.631 93.4076 373.852C93.811 374.504 94.2014 375.169 94.5788 375.833C99.1854 383.951 102.855 392.578 106.538 401.178C110.234 409.765 113.799 418.431 118.002 426.809C120.123 430.992 122.401 435.11 125.159 438.928C126.552 440.817 128.074 442.642 129.844 444.205C131.601 445.782 133.683 447.085 136.051 447.606C138.407 448.115 140.918 447.646 143 446.538C144.054 446.004 145.121 445.496 146.11 444.87C147.138 444.284 148.114 443.645 149.077 442.968C152.942 440.283 156.404 437.078 159.618 433.664C162.09 431.018 164.433 428.243 166.671 425.402C166.775 425.285 166.866 425.154 166.957 425.037C170.419 420.646 173.659 416.085 176.873 411.524C177.342 410.86 177.81 410.195 178.279 409.531C178.461 409.257 178.656 408.983 178.851 408.697C183.562 401.973 188.221 395.223 193.387 388.838C195.885 385.763 198.501 382.739 201.338 379.925C201.312 379.794 201.286 379.651 201.247 379.508ZM129.935 473.629C124.131 466.306 118.432 458.852 112.146 451.92C105.861 445.026 98.8991 438.446 90.3756 434.38C88.2285 433.455 86.0032 432.647 83.6999 432.217C82.5548 431.93 81.3836 431.852 80.2124 431.696C79.0413 431.657 77.8701 431.54 76.6989 431.631C75.4106 431.657 74.1353 431.774 72.8601 431.97C72.834 432.048 72.808 432.126 72.782 432.204C74.0833 431.996 75.3976 431.891 76.7119 431.865C77.8701 431.787 79.0282 431.904 80.1994 431.944C81.3446 432.113 82.5157 432.191 83.6348 432.491C85.9251 432.921 88.1243 433.742 90.2455 434.667C98.6779 438.72 105.614 445.287 111.86 452.167C118.132 459.1 123.806 466.553 129.597 473.89C132.278 477.278 134.984 480.666 137.782 483.975H138.381C135.492 480.587 132.707 477.108 129.935 473.629ZM201.299 452.258C200.401 454.656 199.529 457.041 198.644 459.438C195.664 467.661 192.788 475.922 189.392 483.975H190.042C193.413 475.987 196.276 467.804 199.256 459.66C199.997 457.627 200.752 455.581 201.507 453.549L201.299 452.258ZM187.726 465.341C187.609 464.664 187.505 463.973 187.362 463.282L186.893 461.25C186.62 459.895 186.191 458.565 185.813 457.223C184.239 451.881 181.909 446.786 179.164 441.964C175.702 435.892 171.499 430.315 166.957 425.037C166.84 424.92 166.736 424.803 166.645 424.685C164.029 421.675 161.31 418.782 158.551 415.929C150.795 407.993 142.623 400.5 134.815 392.643C130.924 388.707 127.111 384.694 123.494 380.498C122.583 379.456 121.685 378.4 120.813 377.332C119.928 376.263 119.069 375.182 118.263 374.061C116.831 372.08 115.556 369.969 114.502 367.767C114.437 367.663 114.385 367.559 114.346 367.441C114.242 367.272 114.163 367.089 114.085 366.92C111.795 361.903 110.585 356.391 110.52 350.853C110.429 345.328 111.379 339.803 113.018 334.513C113.213 333.874 113.435 333.223 113.656 332.597C113.552 332.753 113.461 332.91 113.357 333.066C113.187 333.535 113.031 334.004 112.888 334.473C111.222 339.764 110.234 345.302 110.299 350.853C110.351 356.417 111.535 361.968 113.825 367.037C113.903 367.22 113.981 367.389 114.072 367.559C114.111 367.676 114.163 367.78 114.242 367.884C115.296 370.113 116.571 372.237 118.002 374.256C118.809 375.39 119.681 376.472 120.566 377.54C121.438 378.609 122.323 379.677 123.234 380.72C126.851 384.929 130.664 388.955 134.555 392.903C142.363 400.774 150.522 408.293 158.239 416.215C161.023 419.082 163.756 422.027 166.359 425.05C166.476 425.168 166.567 425.285 166.671 425.402C171.187 430.653 175.338 436.192 178.747 442.199C181.467 447.007 183.77 452.063 185.332 457.367C185.696 458.709 186.113 460.025 186.386 461.367L186.854 463.387C186.984 464.064 187.088 464.755 187.219 465.433C187.752 468.143 187.934 470.892 187.674 473.629C187.375 477.251 186.256 480.731 184.629 483.975H185.254C186.828 480.757 187.921 477.291 188.208 473.681C188.468 470.892 188.273 468.065 187.726 465.341ZM195.065 365.057C194.831 364.939 194.584 364.822 194.35 364.705C189.717 362.49 184.993 360.522 180.231 358.646C180.035 358.567 179.853 358.489 179.658 358.411C175.533 356.782 171.382 355.205 167.27 353.577C162.741 351.765 158.239 349.902 153.866 347.765C153.32 347.491 152.76 347.218 152.214 346.931C152.044 346.853 151.875 346.761 151.693 346.657C148.088 344.794 144.601 342.709 141.426 340.194C137.6 337.223 134.243 333.561 132.004 329.261C130.885 327.124 130.026 324.831 129.558 322.472C129.115 320.296 129.024 318.055 129.193 315.839C129.011 315.944 128.829 316.048 128.647 316.178C128.53 318.302 128.621 320.465 129.05 322.563C129.545 324.987 130.43 327.307 131.575 329.496C133.852 333.861 137.275 337.562 141.139 340.559C144.276 343.009 147.685 345.067 151.199 346.905C151.368 346.996 151.537 347.087 151.706 347.165C152.357 347.504 153.007 347.83 153.671 348.156C158.069 350.306 162.585 352.156 167.113 353.954C171.291 355.609 175.507 357.186 179.684 358.841C179.879 358.906 180.061 358.984 180.257 359.062C184.967 360.913 189.626 362.841 194.194 365.031C194.584 365.213 194.974 365.408 195.365 365.591C195.261 365.422 195.157 365.239 195.065 365.057Z" fill="white"/>
<path d="M114.463 327.294C88.7229 353.85 26.7809 454.174 45.871 473.264C65.0912 492.484 171.499 480.405 200.882 474.763C210.694 472.873 187.127 408.136 176.548 406.625C167.751 405.361 115.738 415.46 113.942 413.166C112.485 411.316 122.934 387.053 134.555 348.012C147.932 302.991 125.836 315.553 114.463 327.294Z" fill="#FEB988"/>
<path d="M226.948 397.959C249.083 398.246 254.717 401.725 273.521 392.03C285.858 385.671 295.214 390.832 286.925 402.663C273.365 422.014 244.736 427.656 234.248 426.744L226.948 397.959Z" fill="#FEB988"/>
<path d="M166.203 410.065C166.203 410.065 192.619 400.24 216.225 398.207C232.556 396.8 268.42 397.712 296.801 437.625C303.529 447.085 306.418 465.354 289.813 453.9C278.024 445.756 273.001 437.025 265.284 433.546C265.284 433.546 266.195 457.223 256.474 463.595C252.128 466.449 240.065 473.955 229.849 478.45C229.849 478.45 228.275 476.483 226.622 473.707C226.622 473.707 216.966 478.815 200.869 474.763L166.203 410.065Z" fill="#FEB988"/>
<path d="M232.022 399.354C238.958 404.436 253.468 415.447 262.2 428.595C271.907 443.202 286.677 473.942 275.837 481.017C267.886 486.204 261.224 474.958 261.224 474.958C261.224 474.958 264.659 488.953 256.448 492.067C248.978 494.895 244.333 485.891 244.333 485.891C244.333 485.891 244.957 494.739 237.228 496.081C227.936 497.697 228.158 478.88 217.344 472.365C214.936 470.906 232.022 399.354 232.022 399.354Z" fill="#FEB988"/>
<path d="M245.087 436.296C250.826 442.147 260.443 458.774 261.393 474.632C261.419 474.997 261.159 475.206 261.067 474.88C256.318 457.653 248.601 442.59 244.944 436.4C244.905 436.309 245.022 436.231 245.087 436.296Z" fill="#263238"/>
<path d="M230.656 446.538C235.093 452.089 244.242 469.681 244.658 485.774C244.671 486.138 244.398 486.321 244.32 485.995C240.104 467.791 233.805 453.014 230.526 446.616C230.474 446.538 230.591 446.473 230.656 446.538Z" fill="#263238"/>
<path d="M265.31 433.39C272.051 436.556 276.124 440.726 281.446 445.769C284.088 448.271 286.768 450.734 289.67 452.923C292.312 454.917 296.19 457.927 299.625 455.946C301.538 454.852 301.89 452.376 301.811 450.369C301.72 448.115 301.2 445.886 300.185 443.867C300.133 443.762 300.315 443.671 300.367 443.775C301.317 445.574 302.085 447.45 302.488 449.444C302.853 451.255 303.048 453.327 302.28 455.06C300.653 458.8 295.982 458.618 292.885 457.041C291.037 456.103 289.358 454.786 287.731 453.496C286.17 452.245 284.673 450.929 283.203 449.574C280.197 446.786 277.347 443.841 274.367 441.013C271.088 437.912 268.758 436.283 265.167 433.572C265.05 433.52 265.18 433.325 265.31 433.39Z" fill="#263238"/>
<path d="M276.319 460.533C275.109 456.22 267.769 437.912 265.154 433.533C265.088 433.416 265.245 433.312 265.323 433.416C270.033 439.488 276.761 454.708 278.154 459.478C279.52 464.182 281.016 470.163 280.262 475.062C279.143 482.451 274.028 483.102 272.168 483.194C269.942 483.298 267.834 482.503 266.038 481.2C264.047 479.753 262.317 477.108 261.159 474.971C261.093 474.854 261.25 474.737 261.328 474.854C263.436 478.151 267.249 481.682 271.348 481.76C273.118 481.799 275.004 481.278 276.293 479.988C277.802 478.476 278.245 476.261 278.375 474.215C278.674 469.589 277.555 464.964 276.319 460.533Z" fill="#263238"/>
<path d="M244.658 485.787C245.556 486.829 247.196 490.217 250.462 491.377C252.843 492.237 255.459 492.393 257.619 490.882C259.74 489.409 260.807 487.038 261.302 484.562C261.575 483.168 261.38 476.926 261.172 475.023C261.159 474.88 261.341 474.841 261.367 474.984C261.939 478.411 262.551 482.138 262.057 485.331C261.653 487.989 260.378 490.712 258.114 492.263C255.758 493.866 252.648 494.087 250.15 492.693C248.913 492.002 245.166 488.706 244.359 485.891C244.333 485.826 244.619 485.735 244.658 485.787Z" fill="#263238"/>
<path d="M218.255 471.14C219.309 472 220.155 473.186 220.974 474.254C221.859 475.414 222.705 476.6 223.512 477.812C225.139 480.223 226.453 482.894 227.546 485.591C228.652 488.328 229.602 491.325 231.762 493.449C233.883 495.521 237.111 496.289 239.804 494.882C241.21 494.152 242.264 492.967 242.901 491.52C243.552 490.035 244.125 488.184 244.138 486.555C244.138 486.412 244.346 486.412 244.333 486.568C244.216 488.145 244.424 489.657 243.994 491.207C243.63 492.576 242.966 493.879 241.951 494.882C239.882 496.941 236.694 497.488 233.987 496.55C230.994 495.508 229.082 492.849 227.793 490.087C226.349 487.012 225.269 483.793 223.694 480.77C222.861 479.18 222.055 477.577 221.118 476.053C220.142 474.463 218.892 472.99 218.02 471.349C217.981 471.192 218.125 471.036 218.255 471.14Z" fill="#263238"/>
<path d="M208.664 476.131C211.019 476.287 216.498 476.209 220.922 475.479C221.052 475.453 221.17 475.831 221.052 475.883C219.348 476.509 215.925 476.874 214.897 476.926C212.854 477.03 210.655 476.874 208.664 476.366C208.547 476.326 208.521 476.118 208.664 476.131Z" fill="#263238"/>
<path d="M60.7059 435.41C67.0823 431.227 73.862 427.657 80.772 424.438C87.6168 421.258 94.761 418.822 101.983 416.672C106.108 415.447 110.286 414.43 114.45 413.375C114.58 413.349 114.619 413.544 114.489 413.57C107.201 415.603 100.057 418.287 93.0693 421.154C86.0943 424.008 79.1974 426.979 72.3395 430.08C68.4616 431.839 64.6618 433.781 60.849 435.657C60.6668 435.762 60.5497 435.514 60.7059 435.41Z" fill="#263238"/>
<path d="M61.5908 390.076L122.843 389.229C122.843 389.229 134.815 359.193 139.682 332.363C144.536 305.532 122.362 313.325 98.8211 341.693C75.2675 370.061 61.5908 390.076 61.5908 390.076Z" fill="#FF6300"/>
<path d="M133.761 356.886C133.709 357.082 133.657 357.277 133.592 357.473C129.493 359.962 125.381 362.411 121.126 364.64C118.952 365.76 116.753 366.829 114.502 367.767C114.411 367.806 114.333 367.845 114.242 367.884C113.266 368.288 112.277 368.666 111.275 369.018C107.878 370.217 104.326 371.051 100.708 371.168C97.2206 371.246 93.707 370.373 90.662 368.653C90.5579 368.601 90.4538 368.549 90.3497 368.484C90.0113 368.288 89.686 368.093 89.3607 367.884C86.8101 366.23 84.6109 364.053 82.7371 361.656C82.7631 361.617 82.8021 361.565 82.8282 361.525C84.5719 363.715 86.5759 365.708 88.8792 367.272C89.3477 367.611 89.8292 367.91 90.3237 368.184C90.3757 368.223 90.4147 368.249 90.4668 368.275C93.5639 370.061 97.1425 370.947 100.708 370.855C104.274 370.712 107.8 369.891 111.158 368.679C112.134 368.327 113.109 367.95 114.072 367.559C114.164 367.52 114.255 367.48 114.346 367.441C116.597 366.49 118.796 365.435 120.956 364.301C125.316 362.008 129.545 359.454 133.761 356.886ZM95.0864 375.533C93.7331 373.175 92.2886 370.855 90.662 368.653C90.5579 368.497 90.4408 368.34 90.3237 368.184C89.2436 366.764 88.0984 365.409 86.8492 364.132C85.7301 362.998 84.5068 361.942 83.1665 361.095C83.0624 361.239 82.9453 361.382 82.8282 361.525C84.1425 362.372 85.3527 363.415 86.4458 364.536C87.3046 365.409 88.1114 366.321 88.8792 367.272C89.0354 367.467 89.2045 367.676 89.3607 367.884C91.3126 370.373 93.0043 373.084 94.5789 375.833C97.1035 380.277 99.3417 384.864 101.45 389.529L102.126 389.516C99.9663 384.759 97.676 380.068 95.0864 375.533ZM123.494 380.498C122.583 379.456 121.685 378.4 120.813 377.332C119.928 376.263 119.069 375.182 118.263 374.061C116.831 372.08 115.556 369.969 114.502 367.767C114.437 367.663 114.385 367.559 114.346 367.441C114.242 367.272 114.164 367.09 114.085 366.92C111.795 361.903 110.585 356.391 110.52 350.853C110.429 345.328 111.379 339.803 113.018 334.513C114.255 330.551 115.855 326.707 117.729 323.007C117.677 323.033 117.625 323.072 117.573 323.124C115.712 326.772 114.125 330.564 112.888 334.474C111.223 339.764 110.234 345.302 110.299 350.853C110.351 356.417 111.535 361.968 113.825 367.037C113.903 367.22 113.981 367.389 114.072 367.559C114.111 367.676 114.164 367.78 114.242 367.884C115.296 370.113 116.571 372.237 118.002 374.256C118.809 375.39 119.681 376.472 120.566 377.54C121.438 378.609 122.323 379.677 123.234 380.72C123.884 381.476 124.535 382.218 125.199 382.961C125.251 382.844 125.29 382.726 125.342 382.596C124.717 381.906 124.106 381.202 123.494 380.498ZM132.004 329.261C130.885 327.124 130.026 324.831 129.558 322.472C129.168 320.531 129.05 318.537 129.142 316.556C128.972 316.608 128.803 316.661 128.621 316.739C128.543 318.68 128.66 320.648 129.05 322.563C129.545 324.987 130.43 327.307 131.575 329.496C133.319 332.832 135.713 335.777 138.485 338.318C138.524 338.148 138.563 337.966 138.602 337.783C135.96 335.321 133.67 332.467 132.004 329.261Z" fill="white"/>
<path d="M120.319 388.968C120.644 388.968 122.804 388.642 122.817 388.642C122.986 387.835 126.721 375.26 127.697 372.523C129.675 366.959 131.978 361.486 134.204 356.013C134.269 355.844 134.542 355.922 134.49 356.105C133.019 360.822 131.627 365.578 130.117 370.282C130.56 369.618 130.989 368.953 131.406 368.275C132.265 366.881 133.019 365.448 133.813 364.027C133.891 363.897 134.086 364.001 134.047 364.132C133.397 366.112 132.369 367.976 131.237 369.722C130.755 370.478 130.183 371.181 129.597 371.859C129.467 372.25 129.35 372.641 129.22 373.032C128.296 375.781 123.546 389.385 123.325 389.398C123.273 389.398 121.06 389.411 120.371 389.398C120.202 389.385 120.149 388.968 120.319 388.968Z" fill="#263238"/>
<path d="M71.7279 378.4C84.9491 377.671 98.2354 377.866 111.496 378.322C115.243 378.452 118.991 378.661 122.726 378.974C122.83 378.987 122.843 379.143 122.739 379.143C116.128 379.365 109.518 379.325 102.894 379.312C96.2575 379.312 89.6208 379.247 82.9842 379.052C79.2364 378.948 75.4887 378.843 71.7539 378.648C71.5848 378.648 71.5587 378.413 71.7279 378.4Z" fill="#263238"/>
<path d="M137.17 315.67C137.626 318.302 148.986 335.881 160.867 336.024C164.732 336.063 165.903 314.94 165.903 314.94L166.346 313.403L172.527 291.837L147.867 273.841L144.288 271.444C144.288 271.444 142.987 277.451 141.439 284.957C141.361 285.308 141.295 285.647 141.217 286.025C141.113 286.442 141.022 286.846 140.944 287.237C140.697 288.358 140.45 289.491 140.228 290.638C140.059 291.511 139.89 292.358 139.734 293.27C139.565 294.195 139.422 295.082 139.239 296.007C137.769 305.102 136.988 314.563 137.17 315.67Z" fill="#FEB988"/>
<path d="M141.439 284.957C146.657 302.718 160.112 310.64 166.346 313.403L172.527 291.837L147.867 273.841L144.289 271.444C144.289 271.444 142.987 277.451 141.439 284.957Z" fill="#263238"/>
<path d="M199.932 248.705C211.032 286.481 189.704 297.401 181.558 299.786C174.167 301.949 148.752 308.399 133.8 271.978C118.861 235.557 132.889 218.448 149.52 212.597C166.164 206.733 188.832 210.929 199.932 248.705Z" fill="#FEB988"/>
<path d="M192.697 243.753C191.773 243.897 190.914 243.871 189.99 243.91C188.949 243.962 188.129 244.105 187.193 243.532C186.698 243.232 186.503 242.398 186.75 241.877C187.323 240.678 188.585 240.313 189.834 240.196C191.188 240.079 192.268 240.339 193.387 241.108C194.493 241.851 193.907 243.571 192.697 243.753Z" fill="#263238"/>
<path d="M167.296 250.855C168.155 250.516 168.896 250.047 169.716 249.617C170.64 249.135 171.421 248.835 171.941 247.884C172.215 247.376 171.967 246.555 171.499 246.229C170.393 245.487 169.117 245.799 167.985 246.333C166.749 246.92 165.955 247.689 165.37 248.914C164.797 250.112 166.164 251.298 167.296 250.855Z" fill="#263238"/>
<path d="M174.284 258.7C174.232 258.608 174.114 258.882 174.153 258.986C174.999 261.527 175.533 264.589 173.464 266.127C173.399 266.179 173.451 266.297 173.529 266.27C176.236 265.033 175.481 260.98 174.284 258.7Z" fill="#263238"/>
<path d="M171.2 256.693C166.983 257.605 169.104 265.984 173.021 265.15C176.86 264.316 174.739 255.937 171.2 256.693Z" fill="#263238"/>
<path d="M169.664 257.553C169.052 258.217 168.545 259.234 167.686 259.547C166.684 259.911 165.695 259.221 164.81 258.556C164.719 258.491 164.667 258.582 164.693 258.687C165.07 260.302 166.111 261.788 167.894 261.592C169.521 261.41 170.289 259.703 170.276 257.983C170.289 257.67 169.911 257.292 169.664 257.553Z" fill="#263238"/>
<path d="M189.47 254.204C189.47 254.1 189.704 254.282 189.73 254.386C190.29 257.006 191.37 259.924 193.933 260.211C194.011 260.224 194.037 260.354 193.946 260.368C190.966 260.654 189.574 256.784 189.47 254.204Z" fill="#263238"/>
<path d="M191.122 250.92C195.222 249.578 197.616 257.892 193.816 259.143C190.081 260.355 187.687 252.041 191.122 250.92Z" fill="#263238"/>
<path d="M193.022 250.959C193.803 251.207 194.688 251.819 195.482 251.65C196.406 251.455 196.822 250.36 197.16 249.331C197.199 249.226 197.278 249.278 197.317 249.383C197.811 250.959 197.772 252.771 196.328 253.513C195.013 254.191 193.608 253.122 192.775 251.65C192.606 251.376 192.697 250.855 193.022 250.959Z" fill="#263238"/>
<path d="M179.983 280.67C180.738 281.152 181.532 281.868 182.508 281.751C183.432 281.634 184.421 281.008 185.189 280.513C185.267 280.461 185.371 280.539 185.332 280.63C184.863 281.777 183.562 282.702 182.3 282.741C181.076 282.781 180.27 281.868 179.762 280.839C179.684 280.696 179.879 280.604 179.983 280.67Z" fill="#263238"/>
<path d="M188.624 267.574C188.624 267.574 190.186 271.3 190.667 273.125C190.706 273.294 184.434 276.435 180.335 272.721C180.166 272.564 180.348 272.33 180.543 272.395C183.419 273.516 186.191 273.268 189.053 272.551C189.053 272.017 186.165 266.257 186.451 266.153C187.427 265.801 189.574 265.958 190.836 265.984C187.804 258.126 183.536 250.816 180.634 242.945C180.53 242.659 180.92 242.463 181.076 242.698C186.086 250.034 189.769 258.999 193.114 267.039C193.543 268.056 189.431 267.691 188.624 267.574Z" fill="#263238"/>
<path d="M188.572 273.177C188.572 273.177 187.752 275.809 185.891 277.308C185.202 277.855 184.408 278.259 183.445 278.337C181.467 278.493 180.842 276.838 180.686 275.301C180.543 274.037 180.738 272.838 180.738 272.838C180.738 272.838 184.239 274.389 188.572 273.177Z" fill="#263238"/>
<path d="M185.891 277.308C185.202 277.855 184.408 278.259 183.445 278.337C181.467 278.493 180.842 276.839 180.686 275.301C182.677 274.819 185.058 275.47 185.891 277.308Z" fill="#FF99BA"/>
<path d="M135.713 276.747C143.56 271.17 142.336 262.114 142.336 262.114C152.161 255.65 156.443 246.32 156.885 245.369C156.768 246.216 155.922 252.328 155.389 255.429C179.163 246.425 183.419 226.214 183.419 226.214C192.814 232.755 195.326 237.577 196.926 239.909C196.926 239.909 194.415 224.768 184.85 216.037C173.138 205.339 160.607 210.017 160.607 210.017C160.607 210.017 140.476 207.736 128.517 226.553C115.647 246.855 135.713 276.747 135.713 276.747Z" fill="#263238"/>
<path d="M173.36 248.014C169.833 250.92 165.747 253.201 161.57 254.908C161.531 254.921 161.518 254.869 161.544 254.856C168.128 251.65 173.698 246.894 177.654 240.691C179.32 238.072 180.66 235.27 181.636 232.312C182.651 229.224 183.536 225.601 183.224 222.331C183.198 222.083 183.588 222.044 183.614 222.292C183.939 225.745 184.2 228.937 183.393 232.351C182.625 235.596 181.259 238.737 179.385 241.486C177.719 243.949 175.663 246.125 173.36 248.014Z" fill="#263238"/>
<path d="M172.241 272.473C167.153 273.268 161.96 270.558 159.839 265.606C157.328 259.742 160.047 252.94 165.903 250.425C171.759 247.91 178.552 250.634 181.063 256.497C183.575 262.361 180.855 269.163 174.999 271.678C174.088 272.069 173.165 272.33 172.241 272.473ZM168.896 251.155C168.089 251.285 167.296 251.507 166.502 251.845C161.427 254.022 159.071 259.924 161.245 264.993C163.418 270.062 169.313 272.434 174.375 270.258C179.45 268.082 181.805 262.179 179.632 257.11C177.797 252.81 173.308 250.464 168.896 251.155Z" fill="#FF6300"/>
<path d="M197.72 265.202C193.361 265.893 188.689 262.035 187.075 256.224C186.256 253.292 186.321 250.295 187.258 247.78C188.22 245.187 189.99 243.401 192.255 242.763C194.519 242.124 196.952 242.737 199.125 244.457C201.221 246.125 202.834 248.653 203.641 251.585C205.359 257.722 203.029 263.756 198.475 265.033C198.215 265.111 197.967 265.163 197.72 265.202ZM193.231 244.131C193.035 244.157 192.853 244.196 192.658 244.262C190.888 244.757 189.483 246.203 188.689 248.314C187.869 250.529 187.817 253.188 188.546 255.807C190.029 261.123 194.272 264.603 198.032 263.547C201.78 262.505 203.615 257.318 202.131 252.002C201.403 249.383 199.984 247.128 198.136 245.669C196.562 244.418 194.844 243.884 193.231 244.131Z" fill="#FF6300"/>
<path d="M181.05 257.892L179.775 257.019C181.063 255.129 184.434 252.132 187.96 254.282L187.154 255.598C183.991 253.67 181.168 257.722 181.05 257.892Z" fill="#FF6300"/>
<path d="M132.291 274.623L130.781 274.31C130.924 273.607 132.304 267.378 135.466 265.906C138.433 264.537 158.876 260.837 159.748 260.68L160.021 262.205C154.152 263.26 138.407 266.257 136.116 267.313C134.034 268.277 132.655 272.916 132.291 274.623Z" fill="#FF6300"/>
<path d="M140.84 270.427C140.84 270.427 130 260.081 125.146 264.199C120.293 268.303 130.156 284.488 137.04 285.582C143.924 286.677 145.069 280.305 145.069 280.305L140.84 270.427Z" fill="#FEB988"/>
<path d="M128.087 268.772C127.983 268.785 127.996 268.929 128.087 268.955C132.954 269.867 136.156 273.555 138.693 277.555C137.014 276.161 135.01 275.614 133.11 277.659C133.006 277.764 133.163 277.933 133.28 277.881C135.036 277.112 136.429 277.164 137.977 278.389C139.07 279.262 139.942 280.461 140.814 281.53C141.1 281.894 141.79 281.53 141.543 281.1C141.53 281.073 141.504 281.034 141.491 281.008C140.424 275.223 134.347 268.095 128.087 268.772Z" fill="#263238"/>
<path d="M132.291 318.446C133.852 320.439 135.453 322.394 137.144 324.27C138.81 326.173 140.541 328.01 142.35 329.743C145.98 333.183 149.871 336.506 154.426 338.409C156.664 339.373 159.11 339.933 161.479 339.595C162.702 339.438 163.691 339.06 164.459 338.161C165.227 337.301 165.747 336.194 166.176 335.047C166.996 332.727 167.348 330.212 167.53 327.711C167.725 325.209 167.764 322.668 167.491 320.153C168.063 322.629 168.154 325.196 168.18 327.737C168.115 330.291 167.881 332.858 167.139 335.36C166.749 336.597 166.229 337.861 165.318 338.904C164.862 339.425 164.316 339.907 163.652 340.207C162.975 340.52 162.325 340.663 161.674 340.767C159.019 341.197 156.326 340.598 153.931 339.608C151.537 338.565 149.364 337.158 147.334 335.581C145.317 334.004 143.404 332.297 141.66 330.434C138.133 326.759 134.971 322.746 132.291 318.446Z" fill="#263238"/>
<path d="M499.453 42.5323H377.599V120.365H499.453V42.5323Z" fill="white"/>
<path d="M500.221 121.147H376.832V41.7635H500.221V121.147ZM378.367 119.609H498.686V43.3142H378.367V119.609Z" fill="#EBEBEB"/>
<path d="M499.453 42.5323H377.599V57.2571H499.453V42.5323Z" fill="#455A64"/>
<path d="M500.221 58.0259H376.832V41.7635H500.221V58.0259ZM378.367 56.4883H498.686V43.3142H378.367V56.4883Z" fill="#EBEBEB"/>
<path d="M391.393 50.0119C391.393 52.0577 389.74 53.7126 387.697 53.7126C385.654 53.7126 384.002 52.0577 384.002 50.0119C384.002 47.9661 385.654 46.3112 387.697 46.3112C389.74 46.3112 391.393 47.953 391.393 50.0119Z" fill="#FF6300"/>
<path d="M406.501 50.012C406.501 52.0578 404.849 53.7127 402.806 53.7127C400.763 53.7127 399.11 52.0578 399.11 50.012C399.11 47.9661 400.763 46.3112 402.806 46.3112C404.849 46.2982 406.501 47.9531 406.501 50.012Z" fill="#EBEBEB"/>
<path d="M421.609 50.012C421.609 52.0578 419.957 53.7127 417.914 53.7127C415.871 53.7127 414.218 52.0578 414.218 50.012C414.218 47.9661 415.871 46.3112 417.914 46.3112C419.957 46.2982 421.609 47.9531 421.609 50.012Z" fill="white"/>
<path d="M398.628 86.3678C398.667 78.2497 405.46 71.6561 413.658 71.604C417.263 71.604 420.542 72.7898 423.119 74.7965C424.095 75.6175 424.264 77.0509 423.522 78.0803C422.703 79.1097 421.193 79.2661 420.243 78.5364C418.447 77.0639 416.183 76.282 413.645 76.282C410.822 76.282 408.206 77.4288 406.28 79.227C404.432 81.1165 403.287 83.5793 403.287 86.3548C403.287 89.1434 404.432 91.6844 406.28 93.4826C408.206 95.2809 410.822 96.4276 413.645 96.4276C416.183 96.4276 418.395 95.6457 420.243 94.1733C421.18 93.4826 422.703 93.639 423.522 94.6294C424.264 95.6588 424.095 97.1313 423.119 97.9131C420.542 99.9198 417.263 101.106 413.658 101.106C405.46 101.119 398.667 94.5251 398.628 86.3678Z" fill="#EBEBEB"/>
<path d="M430.562 93.9909C431.304 93.0918 432.645 92.9615 433.555 93.7042C435.351 95.1767 438.474 96.8967 441.376 96.8576C443.419 96.8576 445.267 96.2452 446.49 95.3461C447.714 94.447 448.247 93.4175 448.247 92.4011C448.247 91.8669 448.13 91.502 447.883 91.085C447.636 90.668 447.271 90.2641 446.66 89.8601C445.475 89.0783 443.471 88.3877 441.051 87.9316H440.973C439.047 87.5667 437.251 87.0715 435.69 86.3288C434.128 85.586 432.788 84.5696 431.877 83.1363C431.265 82.1459 430.94 80.9992 430.94 79.7743C430.94 77.3115 432.332 75.1875 434.219 73.7932C436.145 72.3989 438.644 71.6171 441.298 71.6171C445.228 71.6171 448.13 73.5456 450.225 74.9008C451.162 75.5524 451.448 76.8685 450.798 77.8067C450.186 78.797 448.872 79.0837 447.896 78.4191C445.814 77.0248 443.797 75.7999 441.298 75.7999C439.45 75.7999 437.824 76.3733 436.718 77.1942C435.612 78.0152 435.156 78.9143 435.156 79.7743C435.156 80.2695 435.234 80.5953 435.442 80.921C435.651 81.2468 436.015 81.6247 436.548 81.9895C437.616 82.7323 439.45 83.3838 441.663 83.7878H441.741C443.836 84.1918 445.749 84.726 447.388 85.5079C449.067 86.3288 450.537 87.3973 451.487 88.9089C452.099 89.8862 452.476 91.1241 452.476 92.3881C452.476 95.0073 451.006 97.2616 448.95 98.7471C446.946 100.22 444.278 101.08 441.376 101.08C436.952 101.041 433.23 98.8253 430.901 96.9749C429.99 96.2452 429.86 94.89 430.562 93.9909Z" fill="#EBEBEB"/>
<path d="M457.46 93.9909C458.202 93.0918 459.543 92.9615 460.453 93.7042C462.249 95.1767 465.372 96.8967 468.274 96.8576C470.317 96.8576 472.165 96.2452 473.388 95.3461C474.612 94.447 475.145 93.4175 475.145 92.4011C475.145 91.8669 475.028 91.502 474.781 91.085C474.534 90.668 474.169 90.2641 473.558 89.8601C472.373 89.0783 470.369 88.3877 467.949 87.9316H467.871C465.945 87.5667 464.149 87.0715 462.588 86.3288C461.026 85.586 459.686 84.5696 458.775 83.1363C458.163 82.1459 457.838 80.9992 457.838 79.7743C457.838 77.3115 459.23 75.1875 461.117 73.7932C463.043 72.3989 465.542 71.6171 468.196 71.6171C472.126 71.6171 475.028 73.5456 477.123 74.9008C478.06 75.5524 478.346 76.8685 477.696 77.8067C477.084 78.797 475.77 79.0837 474.794 78.4191C472.712 77.0248 470.695 75.7999 468.196 75.7999C466.348 75.7999 464.722 76.3733 463.616 77.1942C462.509 78.0152 462.054 78.9143 462.054 79.7743C462.054 80.2695 462.132 80.5953 462.34 80.921C462.549 81.2468 462.913 81.6247 463.446 81.9895C464.514 82.7323 466.348 83.3838 468.561 83.7878H468.639C470.734 84.1918 472.647 84.726 474.286 85.5079C475.965 86.3288 477.435 87.3973 478.372 88.9089C478.984 89.8862 479.361 91.1241 479.361 92.3881C479.361 95.0073 477.891 97.2616 475.835 98.7471C473.831 100.22 471.163 101.08 468.261 101.08C463.837 101.041 460.115 98.8253 457.786 96.9749C456.888 96.2452 456.758 94.89 457.46 93.9909Z" fill="#EBEBEB"/>
<path d="M112.81 208.818H44.4004V239.597H112.81V208.818Z" fill="#455A64"/>
<path d="M64.7527 225.562H61.9159V230.579C61.9159 231.27 61.3433 231.856 60.6276 231.856C59.9379 231.856 59.3523 231.283 59.3523 230.579V216.936C59.3523 216.219 59.9249 215.659 60.6276 215.659H60.6536H64.7657C67.5115 215.659 69.7367 217.874 69.7367 220.637C69.7237 223.347 67.4985 225.562 64.7527 225.562ZM61.9159 222.995H64.7527C66.093 222.995 67.1341 221.927 67.1601 220.637C67.1341 219.295 66.093 218.226 64.7527 218.226H61.9159V222.995Z" fill="white"/>
<path d="M72.8208 230.592V216.949C72.8208 216.232 73.3804 215.672 74.0961 215.672C74.8118 215.672 75.3844 216.232 75.3844 216.949V222.5H81.3704V216.949C81.3704 216.232 81.9299 215.672 82.6456 215.672C83.3614 215.672 83.9339 216.232 83.9339 216.949V230.592C83.9339 231.309 83.3614 231.869 82.6456 231.869C81.9299 231.869 81.3704 231.309 81.3704 230.592V225.041H75.3844V230.592C75.3844 231.309 74.8118 231.869 74.0961 231.869C73.3673 231.856 72.8208 231.309 72.8208 230.592Z" fill="white"/>
<path d="M94.6045 225.562H91.7677V230.579C91.7677 231.27 91.1951 231.856 90.4794 231.856C89.7897 231.856 89.2041 231.283 89.2041 230.579V216.936C89.2041 216.219 89.7767 215.659 90.4794 215.659H90.5054H94.6175C97.3633 215.659 99.5885 217.874 99.5885 220.637C99.5755 223.347 97.3503 225.562 94.6045 225.562ZM91.7547 222.995H94.5915C95.9318 222.995 96.9729 221.927 96.9989 220.637C96.9729 219.295 95.9318 218.226 94.5915 218.226H91.7547V222.995Z" fill="white"/>
<path d="M257.346 113.785H135.492V191.617H257.346V113.785Z" fill="white"/>
<path d="M258.114 192.386H134.724V113.016H258.114V192.386ZM136.259 190.848H256.565V114.553H136.259V190.848Z" fill="#EBEBEB"/>
<path d="M257.346 113.785H135.492V128.509H257.346V113.785Z" fill="#455A64"/>
<path d="M258.114 129.278H134.724V113.016H258.114V129.278ZM136.259 127.74H256.565V114.553H136.259V127.74Z" fill="#EBEBEB"/>
<path d="M149.285 121.251C149.285 123.297 147.633 124.952 145.59 124.952C143.547 124.952 141.894 123.297 141.894 121.251C141.894 119.205 143.547 117.55 145.59 117.55C147.633 117.55 149.285 119.205 149.285 121.251Z" fill="#FF6300"/>
<path d="M164.394 121.251C164.394 123.297 162.741 124.952 160.698 124.952C158.655 124.952 157.002 123.297 157.002 121.251C157.002 119.205 158.655 117.55 160.698 117.55C162.741 117.55 164.394 119.205 164.394 121.251Z" fill="#EBEBEB"/>
<path d="M179.502 121.251C179.502 123.297 177.849 124.952 175.806 124.952C173.763 124.952 172.11 123.297 172.11 121.251C172.11 119.205 173.763 117.55 175.806 117.55C177.849 117.55 179.502 119.205 179.502 121.251Z" fill="white"/>
<path d="M158.239 157.607C158.278 149.489 165.07 142.895 173.269 142.843C176.873 142.843 180.152 144.029 182.729 146.036C183.705 146.857 183.874 148.29 183.132 149.319C182.313 150.349 180.803 150.505 179.853 149.776C178.057 148.303 175.806 147.521 173.269 147.521C170.445 147.521 167.829 148.668 165.903 150.466C164.055 152.356 162.91 154.818 162.91 157.594C162.91 160.383 164.055 162.924 165.903 164.722C167.829 166.52 170.445 167.68 173.269 167.68C175.806 167.68 178.018 166.898 179.853 165.425C180.79 164.735 182.313 164.891 183.132 165.882C183.874 166.911 183.705 168.383 182.729 169.165C180.152 171.172 176.873 172.358 173.269 172.358C165.07 172.371 158.278 165.764 158.239 157.607Z" fill="#EBEBEB"/>
<path d="M197.499 160.187H191.682C190.459 160.187 189.431 159.21 189.431 157.933C189.431 156.708 190.459 155.678 191.682 155.678H197.499V149.984C197.499 148.668 198.527 147.651 199.828 147.651C201.103 147.651 202.157 148.681 202.157 149.984V155.678H207.974C209.197 155.678 210.225 156.708 210.225 157.933C210.225 159.21 209.197 160.187 207.974 160.187H202.157V165.882C202.157 167.198 201.09 168.214 199.828 168.214C198.514 168.214 197.499 167.185 197.499 165.882V160.187Z" fill="#EBEBEB"/>
<path d="M222.887 160.187H217.071C215.847 160.187 214.819 159.21 214.819 157.933C214.819 156.708 215.847 155.678 217.071 155.678H222.887V149.984C222.887 148.668 223.915 147.651 225.217 147.651C226.492 147.651 227.546 148.681 227.546 149.984V155.678H233.363C234.586 155.678 235.614 156.708 235.614 157.933C235.614 159.21 234.586 160.187 233.363 160.187H227.546V165.882C227.546 167.198 226.479 168.214 225.217 168.214C223.902 168.214 222.887 167.185 222.887 165.882V160.187Z" fill="#EBEBEB"/>
<g opacity="0.6">
<path d="M483.252 131.337H280.041V273.894H483.252V131.337Z" fill="white"/>
<path d="M484.033 274.662H279.273V130.555H484.033V274.662ZM280.808 273.125H482.484V132.106H280.808V273.125Z" fill="#EBEBEB"/>
<path d="M483.252 131.337H280.041V146.062H483.252V131.337Z" fill="#455A64"/>
<path d="M484.033 146.818H279.273V130.555H484.033V146.818ZM280.808 145.28H482.484V132.106H280.808V145.28Z" fill="#EBEBEB"/>
<path d="M293.847 138.804C293.847 140.849 292.195 142.504 290.152 142.504C288.108 142.504 286.456 140.849 286.456 138.804C286.456 136.758 288.108 135.103 290.152 135.103C292.195 135.103 293.847 136.758 293.847 138.804Z" fill="#FF6300"/>
<path d="M308.955 138.804C308.955 140.849 307.303 142.504 305.26 142.504C303.217 142.504 301.564 140.849 301.564 138.804C301.564 136.758 303.217 135.103 305.26 135.103C307.29 135.09 308.955 136.758 308.955 138.804Z" fill="#EBEBEB"/>
<path d="M324.051 138.804C324.051 140.849 322.398 142.504 320.355 142.504C318.312 142.504 316.659 140.849 316.659 138.804C316.659 136.758 318.312 135.103 320.355 135.103C322.398 135.103 324.051 136.758 324.051 138.804Z" fill="white"/>
<path d="M303.672 175.329H295.812V178.209H303.672V175.329Z" fill="#EBEBEB"/>
<path d="M399.552 175.329H309.398V178.209H399.552V175.329Z" fill="#EBEBEB"/>
<path d="M419.306 175.329H404.38V178.209H419.306V175.329Z" fill="#FF6300"/>
<path d="M448.351 175.329H422.546V178.209H448.351V175.329Z" fill="#A6A6A6"/>
<path d="M311.532 183.03H303.672V185.91H311.532V183.03Z" fill="#EBEBEB"/>
<path d="M376.22 183.03H317.062V185.91H376.22V183.03Z" fill="#A6A6A6"/>
<path d="M365.901 206.108H309.398V208.987H365.901V206.108Z" fill="#A6A6A6"/>
<path d="M356.7 190.718H317.062V193.598H356.7V190.718Z" fill="#FF6300"/>
<path d="M429.482 198.419H414.361V201.299H429.482V198.419Z" fill="#A6A6A6"/>
<path d="M424.407 190.718H361.099V193.598H424.407V190.718Z" fill="#A6A6A6"/>
<path d="M384.965 213.796H309.398V216.675H384.965V213.796Z" fill="#FF6300"/>
<path d="M461.846 183.03H420.894V185.91H461.846V183.03Z" fill="#FF6300"/>
<path d="M417.64 183.03H379.941V185.91H417.64V183.03Z" fill="#EBEBEB"/>
<path d="M452.827 190.718H427.387V193.598H452.827V190.718Z" fill="#EBEBEB"/>
<path d="M311.532 190.718H303.672V193.598H311.532V190.718Z" fill="#EBEBEB"/>
<path d="M303.672 198.419H295.812V201.299H303.672V198.419Z" fill="#A6A6A6"/>
<path d="M355.841 198.419H309.398V201.299H355.841V198.419Z" fill="#EBEBEB"/>
<path d="M419.306 206.108H369.102V208.987H419.306V206.108Z" fill="#EBEBEB"/>
<path d="M454.493 206.108H422.546V208.987H454.493V206.108Z" fill="#FF6300"/>
<path d="M410.704 198.419H360.565V201.299H410.704V198.419Z" fill="#FF6300"/>
<path d="M303.672 206.108H295.812V208.987H303.672V206.108Z" fill="#EBEBEB"/>
<path d="M303.672 213.796H295.812V216.675H303.672V213.796Z" fill="#EBEBEB"/>
<path d="M300.666 167.758C300.939 168.045 300.939 168.462 300.666 168.735C300.523 168.866 300.367 168.931 300.198 168.931C300.016 168.931 299.846 168.866 299.703 168.735L296.671 165.66C296.632 165.647 296.632 165.634 296.619 165.595C296.606 165.582 296.58 165.569 296.58 165.569C296.554 165.543 296.554 165.517 296.554 165.478C296.528 165.465 296.515 165.452 296.515 165.439C296.502 165.412 296.502 165.386 296.489 165.373C296.489 165.347 296.463 165.334 296.463 165.321C296.463 165.295 296.463 165.269 296.463 165.243C296.463 165.217 296.45 165.217 296.45 165.178C296.45 165.165 296.463 165.139 296.463 165.126C296.463 165.1 296.463 165.074 296.463 165.048C296.463 165.022 296.489 165.022 296.489 165.009C296.502 164.982 296.502 164.956 296.515 164.917C296.515 164.904 296.528 164.904 296.528 164.891C296.554 164.865 296.567 164.813 296.58 164.8C296.58 164.8 296.58 164.774 296.606 164.774C296.619 164.748 296.632 164.722 296.671 164.696L299.703 161.621C299.976 161.36 300.419 161.36 300.679 161.621C300.952 161.894 300.952 162.324 300.679 162.598L298.129 165.178L300.666 167.758Z" fill="#FF6300"/>
<path d="M303.412 168.11L306.054 161.816C306.184 161.516 306.522 161.373 306.834 161.503C307.121 161.62 307.264 161.972 307.134 162.272L304.492 168.579C304.388 168.8 304.167 168.931 303.946 168.931C303.88 168.931 303.789 168.918 303.724 168.892C303.425 168.774 303.282 168.41 303.412 168.11Z" fill="#FF6300"/>
<path d="M312.365 165.569C312.326 165.595 312.313 165.634 312.274 165.66L309.242 168.735C309.112 168.866 308.929 168.931 308.76 168.931C308.578 168.931 308.422 168.866 308.279 168.735C308.005 168.462 308.005 168.045 308.279 167.758L310.829 165.178L308.279 162.598C308.005 162.324 308.005 161.894 308.279 161.621C308.539 161.36 308.981 161.36 309.255 161.621L312.287 164.696C312.326 164.722 312.339 164.748 312.365 164.774C312.378 164.774 312.378 164.8 312.378 164.8C312.404 164.839 312.417 164.865 312.43 164.891C312.43 164.904 312.443 164.904 312.443 164.917C312.456 164.956 312.456 164.969 312.469 165.022C312.469 165.035 312.482 165.035 312.482 165.048C312.482 165.074 312.482 165.1 312.482 165.126C312.482 165.139 312.495 165.165 312.495 165.178C312.495 165.191 312.482 165.217 312.482 165.23C312.482 165.256 312.482 165.282 312.482 165.321C312.482 165.334 312.469 165.334 312.469 165.347C312.443 165.386 312.443 165.425 312.443 165.439C312.443 165.452 312.43 165.452 312.43 165.465C312.404 165.491 312.391 165.53 312.365 165.569Z" fill="#FF6300"/>
</g>
<path d="M157.276 85.0908H74.2654V115.869H157.276V85.0908Z" fill="#FF6300"/>
<path d="M86.2505 106.865V93.222C86.2505 92.5053 86.8101 91.9449 87.5258 91.9449C88.2415 91.9449 88.8141 92.5053 88.8141 93.222V98.7731H94.8001V93.222C94.8001 92.5053 95.3596 91.9449 96.0753 91.9449C96.7911 91.9449 97.3636 92.5053 97.3636 93.222V106.865C97.3636 107.582 96.7911 108.142 96.0753 108.142C95.3596 108.142 94.8001 107.582 94.8001 106.865V101.314H88.8141V106.865C88.8141 107.582 88.2415 108.142 87.5258 108.142C86.8101 108.142 86.2505 107.582 86.2505 106.865Z" fill="white"/>
<path d="M112.524 94.512H108.854V106.865C108.854 107.582 108.295 108.142 107.579 108.142C106.889 108.142 106.304 107.582 106.304 106.865V94.512H102.647C101.931 94.512 101.372 93.9126 101.372 93.222C101.372 92.5053 101.931 91.9449 102.647 91.9449H112.511C113.2 91.9449 113.786 92.5053 113.786 93.222C113.786 93.9126 113.213 94.512 112.524 94.512Z" fill="white"/>
<path d="M131.51 93.222V106.865C131.51 107.556 130.911 108.142 130.222 108.142C129.506 108.142 128.946 107.569 128.946 106.865V97.1312L125.615 101.757C125.355 102.109 124.99 102.291 124.574 102.291H124.548H124.535C124.118 102.291 123.728 102.109 123.468 101.757L120.162 97.1312V106.865C120.162 107.556 119.59 108.142 118.874 108.142C118.184 108.142 117.599 107.569 117.599 106.865V93.222C117.599 92.5313 118.171 91.9449 118.874 91.9449C118.9 91.9449 118.9 91.9449 118.939 91.9449C119.304 91.9449 119.72 92.1274 119.954 92.4792L124.548 98.8643L129.141 92.4792C129.402 92.1274 129.766 91.9449 130.182 91.9449C130.182 91.9449 130.182 91.9449 130.209 91.9449C130.911 91.971 131.51 92.5183 131.51 93.222Z" fill="white"/>
<path d="M137.105 106.865V93.222C137.105 92.5313 137.665 91.9449 138.381 91.9449C139.096 91.9449 139.669 92.5183 139.669 93.222V105.575H145.928C146.592 105.575 147.204 106.148 147.204 106.865C147.204 107.556 146.605 108.142 145.928 108.142H138.446C138.407 108.142 138.407 108.142 138.407 108.142C138.381 108.142 138.381 108.142 138.381 108.142C137.652 108.142 137.105 107.556 137.105 106.865Z" fill="white"/>
<path d="M289.852 250.816H243.513V281.595H289.852V250.816Z" fill="#B2A993"/>
<path d="M256.097 269.189C256.5 270.427 257.658 271.313 259.025 271.313C260.729 271.313 262.109 269.919 262.109 268.238V259.338C262.109 258.648 262.668 258.1 263.358 258.1C264.035 258.1 264.594 258.634 264.594 259.338V268.238C264.594 271.313 262.083 273.789 259.025 273.789C256.565 273.789 254.457 272.173 253.741 269.932C253.52 269.255 253.897 268.564 254.522 268.381C255.199 268.173 255.888 268.538 256.097 269.189Z" fill="white"/>
<path d="M267.717 269.906C268.121 269.411 268.862 269.346 269.357 269.75C270.346 270.558 272.038 271.496 273.625 271.47C274.744 271.47 275.746 271.131 276.423 270.636C277.1 270.141 277.386 269.58 277.386 269.02C277.386 268.733 277.321 268.525 277.191 268.303C277.061 268.082 276.852 267.86 276.514 267.626C275.863 267.196 274.77 266.818 273.443 266.57H273.404C272.35 266.375 271.374 266.101 270.515 265.697C269.669 265.293 268.927 264.733 268.433 263.951C268.095 263.417 267.912 262.791 267.912 262.114C267.912 260.771 268.667 259.599 269.708 258.843C270.762 258.087 272.129 257.657 273.586 257.657C275.733 257.657 277.321 258.713 278.466 259.455C278.986 259.82 279.143 260.537 278.778 261.045C278.44 261.579 277.724 261.736 277.191 261.384C276.046 260.628 274.952 259.951 273.586 259.951C272.584 259.951 271.686 260.263 271.075 260.706C270.476 261.149 270.229 261.645 270.229 262.114C270.229 262.387 270.268 262.557 270.385 262.739C270.502 262.922 270.697 263.117 270.983 263.325C271.569 263.729 272.571 264.081 273.781 264.316H273.82C274.965 264.537 276.006 264.837 276.904 265.254C277.828 265.697 278.622 266.283 279.143 267.117C279.481 267.652 279.676 268.329 279.676 269.02C279.676 270.453 278.869 271.691 277.75 272.499C276.657 273.307 275.2 273.776 273.612 273.776C271.192 273.75 269.162 272.551 267.886 271.535C267.392 271.131 267.327 270.401 267.717 269.906Z" fill="white"/>
<path opacity="0.6" d="M86.0292 469.355C86.0292 469.355 114.489 456.233 114.489 438.628C114.489 421.037 77.5837 409.7 77.5837 395.953C77.5837 382.205 93.6808 374.113 93.6808 374.113C93.6808 374.113 68.2664 382.805 68.2664 400.201C68.2664 417.597 92.5877 429.376 94.9171 440.453C98.1313 455.829 86.0292 469.355 86.0292 469.355Z" fill="#DBDBDB"/>
<path opacity="0.6" d="M87.4346 469.355C87.4346 469.355 58.9751 459.034 58.9751 445.196C58.9751 431.357 95.8801 422.457 95.8801 411.642C95.8801 400.826 79.7829 394.467 79.7829 394.467C79.7829 394.467 105.197 401.308 105.197 414.977C105.197 428.647 77.2584 438.055 75.2674 449.17C73.3155 460.077 87.4346 469.355 87.4346 469.355Z" fill="#DBDBDB"/>
<path d="M99.862 513.607H72.7949V517.842H99.862V513.607Z" fill="#37474F"/>
<path d="M99.862 513.607H72.7949V516.396H99.862V513.607Z" fill="#263238"/>
<path d="M40.6657 502.231C43.8669 506.74 49.5276 509.959 55.904 508.76C56.8149 508.59 57.7128 508.33 58.6497 507.965C59.912 507.483 61.1873 506.818 62.4756 505.945L59.0401 500.837C58.3374 501.319 57.6608 501.697 57.0101 501.997C50.5687 504.929 46.4826 499.834 45.6757 498.674C41.967 493.449 40.6397 481.526 44.4005 476.939C44.6477 476.6 45.7408 476.066 50.1002 476.991C50.907 477.173 51.8179 477.382 52.8459 477.655C53.9911 477.981 54.6678 478.164 55.3184 478.19L55.4225 475.127L55.7218 472.065C55.4355 472.013 55.0061 471.883 54.4335 471.726C52.7939 471.283 50.5687 470.684 48.2784 470.449C45.0771 470.111 41.7068 470.502 39.6507 473.043C33.5346 480.535 36.0201 495.69 40.6657 502.231Z" fill="#37474F"/>
<path d="M59.04 500.85C58.3373 501.332 57.6607 501.71 57.01 502.01L58.6497 507.978C59.9119 507.496 61.1872 506.831 62.4755 505.958L59.04 500.85Z" fill="#263238"/>
<path d="M48.2783 470.462L50.0871 477.004C50.8939 477.186 51.8049 477.395 52.8329 477.668C53.978 477.994 54.6547 478.177 55.3054 478.203L55.4095 475.14L55.7088 472.078C55.4225 472.026 54.993 471.896 54.4205 471.739C52.7938 471.296 50.5686 470.697 48.2783 470.462Z" fill="#263238"/>
<path d="M122.335 462.462C122.335 462.462 119.082 490.087 113.474 501.723C107.865 513.334 100.044 514.637 95.1772 514.637C90.3104 514.637 90.7528 514.637 86.3414 514.637C81.9039 514.637 82.3594 514.637 77.4795 514.637C72.6126 514.637 64.7918 513.334 59.1832 501.723C53.5746 490.087 50.3213 462.462 50.3213 462.462H122.335Z" fill="#37474F"/>
<path d="M118.484 485.409C117.924 487.95 117.312 490.465 116.636 492.836H56.0209C55.3443 490.465 54.7327 487.95 54.1731 485.409H118.484Z" fill="#455A64"/>
<path d="M115.803 495.651C115.386 496.967 114.957 498.218 114.502 499.365H58.1551C57.6996 498.218 57.2702 496.967 56.8538 495.651H115.803Z" fill="#455A64"/>
<path d="M119.876 478.424C119.655 479.636 119.421 480.874 119.16 482.138H53.4965C53.2362 480.874 53.002 479.636 52.7808 478.424H119.876Z" fill="#455A64"/>
</g>
<defs>
<clipPath id="clip0_155_2139">
<rect width="552" height="530" fill="white"/>
</clipPath>
</defs>
</svg>
