<svg width="501" height="568" viewBox="0 0 501 568" fill="none" xmlns="http://www.w3.org/2000/svg">
<path d="M420.907 567.908C465.141 567.908 501 532.049 501 487.814C501 443.58 465.141 407.721 420.907 407.721C376.672 407.721 340.813 443.58 340.813 487.814C340.813 532.049 376.672 567.908 420.907 567.908Z" fill="#FFEFE6"/>
<path d="M44.8835 354.796C69.619 354.796 89.6712 334.744 89.6712 310.009C89.6712 285.273 69.619 265.221 44.8835 265.221C20.148 265.221 0.0959473 285.273 0.0959473 310.009C0.0959473 334.744 20.148 354.796 44.8835 354.796Z" fill="#FFCFB0"/>
<g clip-path="url(#clip0_1_1780)">
<path d="M214.583 115.491C214.583 169.247 170.912 212.839 117.059 212.839C63.2057 212.839 19.535 169.247 19.535 115.491C19.535 61.719 63.2057 18.1426 117.059 18.1426C170.928 18.1426 214.583 61.7346 214.583 115.491Z" stroke="#C6C6C6" stroke-width="0.9765" stroke-linecap="round" stroke-linejoin="round" stroke-dasharray="2.92 2.92"/>
<path d="M327.592 339.899C376.814 339.899 416.716 300.069 416.716 250.935C416.716 201.802 376.814 161.971 327.592 161.971C278.37 161.971 238.467 201.802 238.467 250.935C238.467 300.069 278.37 339.899 327.592 339.899Z" stroke="#C6C6C6" stroke-width="0.9765" stroke-linecap="round" stroke-linejoin="round" stroke-dasharray="2.93 2.93"/>
<path d="M352.055 76.3485C352.055 107.107 327.076 132.025 296.278 132.025C265.48 132.025 240.501 107.107 240.501 76.3485C240.501 45.6062 265.48 20.6719 296.278 20.6719C327.091 20.6875 352.055 45.6062 352.055 76.3485Z" stroke="#C6C6C6" stroke-width="0.9765" stroke-linecap="round" stroke-linejoin="round" stroke-dasharray="2.95 2.95"/>
<path d="M203.384 272.528C203.384 299.914 181.142 322.1 153.722 322.1C126.287 322.1 104.061 299.898 104.061 272.528C104.061 245.143 126.303 222.957 153.722 222.957C181.157 222.957 203.384 245.159 203.384 272.528Z" stroke="#C6C6C6" stroke-width="0.9765" stroke-linecap="round" stroke-linejoin="round" stroke-dasharray="2.93 2.93"/>
<path d="M182.002 201.379C182.205 199.037 182.33 196.68 182.33 194.291C182.33 193.057 182.299 191.824 182.237 190.606C166.533 182.472 164.171 173.806 174.197 159.442C172.711 156.444 171.053 153.572 169.223 150.808C151.579 152.354 145.354 146.14 146.903 128.528C144.134 126.701 141.241 125.031 138.253 123.563C123.863 133.555 115.166 131.213 107.033 115.538C105.797 115.475 104.562 115.444 103.326 115.444C100.933 115.444 98.5709 115.569 96.2403 115.772C88.8263 131.151 80.3018 133.665 66.0525 124.765C62.9555 126.42 59.9836 128.294 57.1525 130.323C58.5915 146.233 52.7104 152.322 36.7875 151.807C34.8323 154.852 33.0805 158.037 31.5476 161.347C39.8845 174.056 37.7103 182.284 24.4308 189.997C24.3526 191.434 24.3057 192.87 24.3057 194.306C24.3057 196.867 24.4464 199.396 24.6811 201.894C37.6634 208.983 39.994 217.024 32.6425 229.561C34.3631 232.996 36.3339 236.29 38.5237 239.413C52.8355 238.991 58.5603 244.706 58.1379 258.992C61.2662 261.178 64.5665 263.145 68.0076 264.862C80.5677 257.54 88.623 259.866 95.7241 272.809C98.2268 273.044 100.761 273.184 103.326 273.184C104.78 273.184 106.219 273.137 107.658 273.059C115.37 259.819 123.613 257.649 136.345 265.955C139.661 264.425 142.852 262.677 145.902 260.725C145.385 244.846 151.47 238.976 167.409 240.412C169.458 237.586 171.334 234.62 172.992 231.528C164.093 217.273 166.595 208.78 182.002 201.379ZM103.326 249.499C72.7782 249.499 48.018 224.783 48.018 194.291C48.018 163.798 72.7782 139.082 103.326 139.082C133.873 139.082 158.634 163.798 158.634 194.291C158.618 224.783 133.873 249.499 103.326 249.499Z" fill="#95C11F"/>
<path d="M425.35 201.379C425.554 199.037 425.679 196.68 425.679 194.291C425.679 193.057 425.648 191.824 425.585 190.606C409.881 182.472 407.519 173.806 417.545 159.442C416.059 156.444 414.401 153.572 412.571 150.808C394.928 152.354 388.703 146.14 390.251 128.528C387.483 126.701 384.589 125.031 381.601 123.563C367.211 133.555 358.515 131.213 350.381 115.538C349.146 115.475 347.91 115.444 346.674 115.444C344.281 115.444 341.919 115.569 339.589 115.772C332.175 131.151 323.65 133.665 309.401 124.765C306.304 126.42 303.332 128.294 300.501 130.323C301.94 146.233 296.059 152.322 280.136 151.807C278.181 154.852 276.429 158.037 274.896 161.347C283.233 174.056 281.059 182.284 267.779 189.997C267.701 191.434 267.654 192.87 267.654 194.306C267.654 196.867 267.779 199.396 268.029 201.894C281.012 208.983 283.342 217.024 275.991 229.561C277.711 232.996 279.682 236.29 281.872 239.413C296.184 238.991 301.909 244.706 301.486 258.992C304.615 261.178 307.915 263.145 311.356 264.862C323.916 257.54 331.971 259.866 339.073 272.809C341.575 273.044 344.109 273.184 346.674 273.184C348.129 273.184 349.568 273.137 351.007 273.059C358.718 259.819 366.961 257.649 379.693 265.955C383.009 264.425 386.2 262.677 389.25 260.725C388.734 244.846 394.818 238.976 410.757 240.412C412.806 237.586 414.683 234.62 416.341 231.528C407.441 217.273 409.959 208.78 425.35 201.379ZM346.674 249.499C316.127 249.499 291.366 224.783 291.366 194.291C291.366 163.798 316.127 139.082 346.674 139.082C377.222 139.082 401.982 163.798 401.982 194.291C401.982 224.783 377.222 249.499 346.674 249.499Z" fill="#F39200"/>
<path d="M303.911 100.986C304.114 98.6443 304.255 96.3023 304.255 93.8979C304.255 92.6645 304.224 91.431 304.161 90.2132C288.457 82.0787 286.111 73.4134 296.121 59.0493C294.635 56.0671 292.977 53.1787 291.147 50.4152C273.504 51.9609 267.279 45.7468 268.827 28.1351C266.059 26.3084 263.165 24.6534 260.177 23.1701C245.787 33.1626 237.091 30.8206 228.957 15.1449C227.722 15.0825 226.486 15.0513 225.25 15.0513C222.857 15.0513 220.495 15.1762 218.165 15.3791C210.751 30.7581 202.226 33.2719 187.977 24.3723C184.88 26.0273 181.908 27.9009 179.077 29.9306C180.516 45.8561 174.635 51.9296 158.712 51.4144C156.757 54.459 155.005 57.6441 153.472 60.9541C161.809 73.6632 159.635 81.8914 146.355 89.6043C146.277 91.0407 146.23 92.4771 146.23 93.9135C146.23 96.4741 146.355 99.0034 146.605 101.502C159.588 108.59 161.918 116.631 154.567 129.168C156.288 132.603 158.258 135.882 160.448 139.02C174.76 138.598 180.485 144.313 180.062 158.599C183.191 160.785 186.491 162.736 189.932 164.47C202.492 157.147 210.547 159.473 217.649 172.417C220.151 172.651 222.685 172.791 225.25 172.791C226.705 172.791 228.144 172.745 229.583 172.666C237.294 159.426 245.537 157.256 258.269 165.578C261.585 164.048 264.776 162.299 267.826 160.348C267.31 144.469 273.394 138.598 289.333 140.035C291.382 137.209 293.259 134.242 294.917 131.151C286.001 116.881 288.52 108.387 303.911 100.986ZM225.235 149.106C194.687 149.106 169.927 124.39 169.927 93.8979C169.927 63.4053 194.687 38.6896 225.235 38.6896C255.782 38.6896 280.543 63.4053 280.543 93.8979C280.543 124.39 255.782 149.106 225.235 149.106Z" fill="#00B1EB"/>
<path d="M276.679 51.1489C276.914 79.6274 253.968 102.922 225.438 103.156C196.908 103.391 173.571 80.4861 173.337 52.0076C173.086 23.5135 196.032 0.234269 224.578 7.11175e-05C253.107 -0.234127 276.444 22.6704 276.679 51.1489Z" fill="#95C11F"/>
<path d="M198.691 50.181L186.6 50.6494L184.833 62.6872L238.186 101.47C243.535 100.065 248.525 97.8325 253.045 94.8972L261.585 83.9055L202.007 40.5945L198.691 50.181Z" fill="#749719"/>
<path d="M246.1 40.5945L235.855 53.7096L226.564 43.7015L224.14 62.6872L260.459 89.0891C268.014 81.9695 273.426 72.5859 275.6 62.047L246.1 40.5945Z" fill="#749719"/>
<path d="M221.355 40.5945L212.69 43.7952L210.97 62.6715L254.218 94.1165C260.928 89.5262 266.465 83.3903 270.376 76.2394L221.355 40.5945Z" fill="#749719"/>
<path d="M276.444 56.4731L254.609 40.5945L250.026 62.6715L269.891 77.1137C273.441 70.9309 275.741 63.9362 276.444 56.4731Z" fill="#749719"/>
<path d="M202.07 62.5935H197.8V52.8508H189.103V62.5935H184.833V40.5945H189.103V49.3223H197.8V40.5945H202.07V62.5935Z" fill="white"/>
<path d="M221.34 44.3885H215.24V62.5779H210.907V44.3885H204.807V40.5945H221.324V44.3885H221.34Z" fill="white"/>
<path d="M246.116 62.5935H241.924V47.9014L234.979 59.5957L228.3 47.7922V62.5935H224.108V40.5789H228.942L235.057 51.5081L241.455 40.5789H246.116V62.5935Z" fill="white"/>
<path d="M265.167 62.5935H250.245V40.5945H254.609V58.456H265.167V62.5935Z" fill="white"/>
<path d="M449 187.452C449 215.946 425.866 239.038 397.321 239.038C368.775 239.038 345.642 215.946 345.642 187.452C345.642 158.974 368.775 135.866 397.321 135.866C425.866 135.882 449 158.974 449 187.452Z" fill="#00B1EB"/>
<path d="M421.44 175.727L422.394 184.111L438.239 199.131L417.436 201.613L438.739 218.335C445.183 209.732 449.016 199.037 449.016 187.468C449.016 184.954 448.828 182.503 448.484 180.083L438.771 172.448L421.44 175.727Z" fill="#008AB5"/>
<path d="M410.835 172.448L393.536 175.727L394.49 184.111L410.335 199.131L389.531 201.613L426.101 230.326C436.299 223.488 443.917 213.136 447.217 200.989L410.835 172.448Z" fill="#008AB5"/>
<path d="M439.537 217.18L382.227 172.183L358.155 177.991L360.689 201.598L407.175 238.086C420.486 235.525 431.982 227.859 439.537 217.18Z" fill="#008AB5"/>
<path d="M386.575 198.522C384.855 200.614 382.759 202.285 380.287 203.518C377.832 204.752 375.11 205.376 372.138 205.376C369.573 205.376 367.164 204.908 364.928 203.971C362.675 203.034 360.72 201.77 359.062 200.161C357.404 198.553 356.09 196.664 355.136 194.494C354.182 192.324 353.697 189.982 353.697 187.484C353.697 184.985 354.182 182.643 355.136 180.473C356.09 178.303 357.404 176.398 359.062 174.79C360.72 173.166 362.675 171.886 364.928 170.965C367.18 170.044 369.573 169.591 372.138 169.591C375.11 169.591 377.816 170.215 380.287 171.449C382.743 172.682 384.808 174.29 386.435 176.273L381.82 181.02C380.757 179.49 379.38 178.272 377.691 177.335C376.002 176.398 374.156 175.93 372.138 175.93C370.527 175.93 369.01 176.242 367.587 176.851C366.163 177.475 364.912 178.303 363.848 179.349C362.785 180.395 361.94 181.613 361.314 183.018C360.689 184.408 360.392 185.907 360.392 187.484C360.392 189.029 360.704 190.513 361.314 191.902C361.94 193.292 362.769 194.509 363.848 195.571C364.912 196.617 366.163 197.46 367.587 198.069C369.01 198.694 370.527 198.99 372.138 198.99C374.266 198.99 376.158 198.506 377.8 197.538C379.443 196.57 380.804 195.306 381.899 193.729L386.575 198.522Z" fill="white"/>
<path d="M413.134 195.665C413.134 196.961 412.853 198.194 412.29 199.35C411.727 200.52 410.945 201.535 409.944 202.425C408.927 203.315 407.738 204.033 406.362 204.564C404.985 205.095 403.452 205.361 401.779 205.361C400.277 205.361 398.932 205.283 397.743 205.095C396.554 204.923 395.428 204.658 394.38 204.283C393.332 203.909 392.316 203.425 391.362 202.831C390.392 202.238 389.391 201.535 388.358 200.692L393.113 195.899C394.49 197.054 395.851 197.866 397.164 198.335C398.494 198.803 399.933 199.053 401.482 199.053C402.123 199.053 402.717 198.959 403.28 198.772C403.843 198.584 404.328 198.335 404.751 198.022C405.173 197.71 405.501 197.335 405.752 196.898C406.002 196.461 406.111 195.993 406.111 195.477C406.111 194.931 406.018 194.447 405.814 194.01C405.611 193.573 405.251 193.167 404.735 192.761C404.219 192.355 403.499 191.949 402.576 191.527C401.654 191.106 400.48 190.637 399.041 190.122C397.775 189.669 396.554 189.138 395.397 188.545C394.224 187.952 393.207 187.249 392.331 186.406C391.455 185.579 390.752 184.595 390.22 183.471C389.688 182.347 389.422 181.02 389.422 179.505C389.422 178.037 389.719 176.695 390.314 175.446C390.908 174.212 391.706 173.151 392.738 172.276C393.755 171.402 394.959 170.715 396.32 170.231C397.681 169.747 399.167 169.497 400.746 169.497C403.39 169.497 405.626 169.841 407.441 170.528C409.255 171.215 410.866 172.229 412.274 173.541L407.613 178.24C406.753 177.397 405.783 176.757 404.719 176.32C403.656 175.867 402.404 175.649 400.965 175.649C400.308 175.649 399.698 175.742 399.135 175.945C398.572 176.148 398.087 176.414 397.696 176.742C397.29 177.069 396.977 177.46 396.727 177.913C396.476 178.365 396.367 178.818 396.367 179.318C396.367 179.864 396.476 180.364 396.711 180.801C396.946 181.254 397.337 181.675 397.868 182.097C398.416 182.518 399.135 182.94 400.043 183.346C400.95 183.768 402.076 184.22 403.437 184.704C405.173 185.313 406.643 185.969 407.879 186.687C409.115 187.405 410.131 188.202 410.898 189.06C411.68 189.919 412.258 190.887 412.618 191.964C412.947 193.104 413.134 194.322 413.134 195.665Z" fill="white"/>
<path d="M440.945 195.665C440.945 196.961 440.663 198.194 440.1 199.35C439.537 200.52 438.755 201.535 437.754 202.425C436.753 203.315 435.548 204.033 434.172 204.564C432.795 205.095 431.263 205.361 429.589 205.361C428.087 205.361 426.742 205.283 425.554 205.095C424.365 204.923 423.239 204.658 422.191 204.283C421.143 203.909 420.126 203.425 419.172 202.831C418.202 202.238 417.201 201.535 416.169 200.692L420.924 195.899C422.3 197.054 423.661 197.866 424.99 198.335C426.32 198.803 427.759 199.053 429.307 199.053C429.933 199.053 430.543 198.959 431.106 198.772C431.669 198.584 432.154 198.335 432.577 198.022C432.999 197.71 433.327 197.335 433.578 196.898C433.828 196.461 433.937 195.993 433.937 195.477C433.937 194.931 433.843 194.447 433.64 194.01C433.437 193.573 433.077 193.167 432.561 192.761C432.045 192.355 431.325 191.949 430.402 191.527C429.48 191.106 428.306 190.637 426.852 190.122C425.585 189.669 424.365 189.138 423.207 188.545C422.034 187.952 421.018 187.249 420.142 186.406C419.266 185.579 418.562 184.595 418.03 183.471C417.498 182.347 417.232 181.02 417.232 179.505C417.232 178.037 417.529 176.695 418.124 175.446C418.718 174.212 419.516 173.151 420.548 172.276C421.565 171.402 422.769 170.715 424.13 170.231C425.491 169.747 426.977 169.497 428.557 169.497C431.2 169.497 433.437 169.841 435.251 170.528C437.066 171.215 438.677 172.229 440.084 173.541L435.423 178.24C434.563 177.397 433.593 176.757 432.53 176.32C431.466 175.867 430.215 175.649 428.776 175.649C428.119 175.649 427.509 175.742 426.946 175.945C426.383 176.148 425.898 176.414 425.507 176.742C425.1 177.069 424.787 177.46 424.537 177.913C424.287 178.365 424.177 178.818 424.177 179.318C424.177 179.864 424.287 180.364 424.521 180.801C424.756 181.254 425.147 181.675 425.694 182.097C426.242 182.518 426.961 182.94 427.868 183.346C428.776 183.768 429.902 184.22 431.263 184.704C432.999 185.313 434.469 185.969 435.705 186.687C436.94 187.405 437.957 188.202 438.724 189.06C439.506 189.919 440.069 190.887 440.444 191.964C440.757 193.104 440.945 194.322 440.945 195.665Z" fill="white"/>
<path d="M104.358 187.452C104.358 215.946 81.2246 239.038 52.6791 239.038C24.1336 239.038 1 215.946 1 187.452C1 158.974 24.1336 135.866 52.6791 135.866C81.2089 135.882 104.358 158.974 104.358 187.452Z" fill="#F39200"/>
<path d="M22.8353 194.619L12.559 196.602L64.8324 237.586C68.8522 236.618 72.6844 235.182 76.2819 233.324L84.3998 221.067L26.4329 175.617L22.8353 194.619Z" fill="#BA7300"/>
<path d="M102.857 199.74L71.8554 175.43L64.4883 193.448L58.6228 198.788L89.8742 223.207C96.1152 216.774 100.667 208.718 102.857 199.74Z" fill="#BA7300"/>
<path d="M104.123 192.152L82.7104 175.368L73.9982 193.463L68.1327 198.803L93.7063 218.788C99.4936 211.262 103.232 202.113 104.123 192.152Z" fill="#BA7300"/>
<path d="M95.2236 216.711L61.3601 190.169L60.8126 189.732L60.359 189.373L59.9211 189.045L42.4809 175.352L33.7687 193.448L27.9032 198.787L73.6855 234.573C82.4134 230.701 89.8586 224.471 95.2236 216.711Z" fill="#BA7300"/>
<path d="M236.575 375.7H222.607V477.249H236.575V375.7Z" fill="#878787"/>
<path d="M238.483 459.231H220.699V501.995H238.483V459.231Z" fill="#575756"/>
<path d="M240.688 471.082H218.462V507.086H240.688V471.082Z" fill="#3C3C3B"/>
<path d="M222.748 361.758C221.84 361.758 221.105 360.852 221.105 359.744C221.105 358.635 221.84 357.73 222.748 357.73H236.434C237.341 357.73 238.061 358.635 238.061 359.744C238.061 360.852 237.325 361.758 236.434 361.758H222.748Z" fill="#282727"/>
<path d="M222.748 365.786C221.84 365.786 221.105 364.881 221.105 363.757C221.105 362.648 221.84 361.742 222.748 361.742H236.434C237.341 361.742 238.061 362.648 238.061 363.757C238.061 364.881 237.325 365.786 236.434 365.786H222.748Z" fill="#282727"/>
<path d="M222.748 369.846C221.84 369.846 221.105 368.94 221.105 367.831C221.105 366.723 221.84 365.802 222.748 365.802H236.434C237.341 365.802 238.061 366.707 238.061 367.831C238.061 368.956 237.325 369.846 236.434 369.846H222.748Z" fill="#282727"/>
<path d="M222.748 373.89C221.84 373.89 221.105 372.984 221.105 371.86C221.105 370.751 221.84 369.846 222.748 369.846H236.434C237.341 369.846 238.061 370.751 238.061 371.86C238.061 372.984 237.325 373.89 236.434 373.89H222.748Z" fill="#282727"/>
<path d="M222.748 377.918C221.84 377.918 221.105 377.012 221.105 375.903C221.105 374.795 221.84 373.889 222.748 373.889H236.434C237.341 373.889 238.061 374.795 238.061 375.903C238.061 377.028 237.325 377.918 236.434 377.918H222.748Z" fill="#282727"/>
<path d="M222.748 381.962C221.84 381.962 221.105 381.056 221.105 379.947C221.105 378.823 221.84 377.918 222.748 377.918H236.434C237.341 377.918 238.061 378.823 238.061 379.947C238.061 381.056 237.325 381.962 236.434 381.962H222.748Z" fill="#282727"/>
<path d="M302.753 300.117C294.229 336.386 261.695 358.385 229.583 358.745C197.471 358.401 164.953 336.402 156.413 300.117C147.779 264.144 180.156 223.316 229.583 223.284C278.994 223.3 311.387 264.144 302.753 300.117Z" fill="#3C3C3B"/>
<path d="M303.817 415.608C302.691 407.848 296.622 399.885 290.178 398.277C270.235 393.172 249.839 388.425 229.583 389.268C209.312 388.425 188.931 393.172 168.988 398.277C162.528 399.87 156.475 407.832 155.349 415.608C154.239 423.383 158.79 427.427 165.641 425.116C186.397 418.215 207.92 414.437 229.583 413.766C251.231 414.437 272.753 418.215 293.525 425.116C300.376 427.427 304.927 423.399 303.817 415.608Z" fill="#3C3C3B"/>
<path d="M298.859 517.515H291.069V528.288H298.859V517.515Z" fill="#878787"/>
<path d="M294.964 540.982C299.499 540.982 303.176 537.312 303.176 532.785C303.176 528.258 299.499 524.588 294.964 524.588C290.429 524.588 286.752 528.258 286.752 532.785C286.752 537.312 290.429 540.982 294.964 540.982Z" fill="#3C3C3B"/>
<path d="M288.207 531.255C288.911 528.163 291.664 525.853 294.964 525.853C298.264 525.853 301.033 528.163 301.721 531.255H304.302C303.567 526.758 299.656 523.323 294.948 523.323C290.24 523.323 286.346 526.758 285.595 531.255H288.207Z" fill="#282727"/>
<path d="M169.254 517.515H161.465V528.288H169.254V517.515Z" fill="#878787"/>
<path d="M173.571 532.785C173.571 537.313 169.896 540.982 165.36 540.982C160.824 540.982 157.148 537.313 157.148 532.785C157.148 528.257 160.824 524.588 165.36 524.588C169.896 524.588 173.571 528.257 173.571 532.785Z" fill="#3C3C3B"/>
<path d="M158.602 531.255C159.306 528.163 162.075 525.853 165.36 525.853C168.66 525.853 171.428 528.163 172.117 531.255H174.713C173.978 526.758 170.068 523.323 165.36 523.323C160.667 523.323 156.757 526.758 156.022 531.255H158.602Z" fill="#282727"/>
<path d="M300.126 517.546C300.126 520.7 242.268 514.611 236.559 514.611C230.85 514.611 226.236 512.066 226.236 508.912C226.236 505.758 230.866 503.213 236.559 503.213C242.284 503.213 300.126 514.392 300.126 517.546Z" fill="#3C3C3B"/>
<path d="M159.04 517.546C159.04 520.7 216.898 514.611 222.591 514.611C228.3 514.611 232.915 512.066 232.915 508.912C232.915 505.758 228.3 503.213 222.591 503.213C216.898 503.213 159.04 514.392 159.04 517.546Z" fill="#3C3C3B"/>
<path d="M233.837 531.879H226.048V543.823H233.837V531.879Z" fill="#878787"/>
<path d="M238.139 548.304C238.139 552.832 234.463 556.501 229.927 556.501C225.391 556.501 221.715 552.832 221.715 548.304C221.715 543.776 225.391 540.107 229.927 540.107C234.463 540.107 238.139 543.792 238.139 548.304Z" fill="#3C3C3B"/>
<path d="M223.17 546.79C223.874 543.714 226.627 541.388 229.927 541.388C233.227 541.388 235.996 543.698 236.7 546.79H239.281C238.53 542.293 234.635 538.858 229.927 538.858C225.219 538.858 221.324 542.293 220.573 546.79H223.17Z" fill="#282727"/>
<path d="M236.387 494.173C232.039 494.845 227.127 494.595 222.904 493.486C223.201 501.246 223.905 520.575 226.048 532.207C227.065 537.687 232.899 537.734 233.744 532.363C235.542 521.137 236.324 502.526 236.387 494.173Z" fill="#3C3C3B"/>
<path d="M263.728 174.275H195.688V267.657H263.728V174.275Z" fill="#52240F"/>
<path d="M237.513 220.646H220.354V238.866H237.513V220.646Z" fill="#F6C793"/>
<path d="M255.297 329.454L259.818 281.568V244.331L255.297 240.678L237.497 237.165H230.068H229.301H221.872L204.087 240.678L199.551 243.207V281.568L204.072 329.454L193.827 385.022H229.301H230.068H265.542L255.297 329.454Z" fill="#E6332A"/>
<path d="M259.802 244.331V275.167L290.115 332.421L310.699 338.166L259.802 244.331Z" fill="#F6C793"/>
<path d="M255.11 152.713C255.11 152.713 261.945 152.463 262.836 163.002C263.728 173.525 268.639 209.061 240.313 224.237C240.313 224.237 231.913 165.859 255.11 152.713Z" fill="#52240F"/>
<path d="M255.11 152.713C255.11 152.713 251.074 139.91 229.348 139.91C207.622 139.91 176.871 155.773 198.003 204.642C205.057 220.942 220.902 226.641 220.902 226.641L255.11 152.713Z" fill="#52240F"/>
<path d="M258.394 197.554C258.394 197.554 259.333 197.554 259.645 197.554C260.897 197.554 261.788 195.352 262.164 194.275C262.993 191.839 263.352 189.919 263.478 188.842C263.634 187.483 263.212 185.173 261.491 185.173C259.505 185.173 258.394 187.187 258.394 187.187V197.554Z" fill="#FCD4A6"/>
<path d="M197.753 197.554C197.753 197.554 196.814 197.554 196.517 197.554C195.25 197.554 194.358 195.352 193.983 194.275C193.154 191.839 192.794 189.919 192.669 188.842C192.513 187.483 192.919 185.173 194.656 185.173C196.642 185.173 197.753 187.187 197.753 187.187V197.554Z" fill="#FCD4A6"/>
<path d="M259.223 169.294C259.223 169.294 258.253 158.146 247.492 150.761C243.238 147.841 236.168 145.578 228.363 145.671C228.316 145.671 228.285 145.671 228.253 145.671C228.222 145.671 228.191 145.671 228.144 145.671C228.128 145.671 228.097 145.671 228.081 145.671C228.066 145.671 228.034 145.671 228.019 145.671C227.987 145.671 227.956 145.671 227.909 145.671C227.878 145.671 227.847 145.671 227.8 145.671C219.979 145.578 212.925 147.841 208.67 150.761C197.909 158.146 196.939 169.294 196.939 169.294C196.939 169.294 192.466 187.811 200.208 204.689C201.522 207.562 203.54 213.901 212.69 221.614C218.712 226.704 222.998 228.406 228.003 228.406C228.019 228.406 228.05 228.406 228.066 228.406C228.081 228.406 228.113 228.406 228.128 228.406C233.149 228.406 237.435 226.704 243.457 221.614C252.591 213.901 254.625 207.562 255.939 204.689C263.681 187.811 259.223 169.294 259.223 169.294Z" fill="#FCD4A6"/>
<path d="M258.488 184.548C258.848 186.312 259.458 188.264 260.521 189.716C260.521 189.716 260.521 187.311 260.521 184.767C261.085 180.879 263.493 159.145 249.791 149.34C235.824 139.363 226.157 140.441 216.241 145.14C206.668 147.467 194.843 155.32 195.172 179.942C195.172 182.706 195.172 189.622 195.172 189.622C196.767 187.405 197.377 184.017 197.596 181.894H228.113V167.186C233.65 174.587 241.173 181.8 250.871 185.172C250.871 185.172 239.562 177.147 238.436 166.468C238.405 166.468 240.031 176.32 258.488 184.548Z" fill="#72341D"/>
<path d="M257.972 186.094C257.847 186.047 254.703 184.86 250.605 184.111C250.198 184.017 249.729 183.939 249.228 183.877C246.882 183.533 244.739 183.408 242.675 183.549C234.541 184.111 231.898 186.828 231.069 188.202H225.798C224.969 186.828 222.325 184.111 214.192 183.549C212.111 183.408 209.969 183.533 207.622 183.877C207.106 183.939 206.668 184.017 206.262 184.095C202.132 184.845 199.004 186.047 198.879 186.094L198.238 186.344L199.583 188.951L199.786 189.154L200.036 189.045C200.115 189.014 201.1 188.592 201.569 188.42C201.256 189.779 201.225 191.402 201.225 193.323C201.225 200.989 204.682 201.613 211.47 201.613C216.913 201.613 223.936 202.535 225.766 195.946C226.314 194.041 226.439 192.386 226.204 190.934H230.631C230.396 192.386 230.521 194.025 231.069 195.946C232.914 202.535 239.937 201.613 245.381 201.613C252.169 201.613 255.626 200.989 255.626 193.323C255.626 191.402 255.594 189.779 255.282 188.42C255.72 188.592 256.455 188.889 256.658 188.967L256.924 189.076L258.551 186.344L257.972 186.094ZM224.89 195.274C223.217 201.723 216.491 200.755 211.236 200.755C204.963 200.755 202.164 200.614 202.164 192.964C202.164 189.622 202.164 187.374 203.274 186.063C205.871 185.266 209.937 184.283 214.082 184.595C219.666 185.001 222.45 186.531 223.577 187.39C223.983 187.764 224.327 188.186 224.578 188.592C225.532 190.2 225.626 192.37 224.89 195.274ZM245.615 200.755C240.391 200.755 233.681 201.707 232.023 195.228C231.272 192.324 231.366 190.122 232.336 188.498C232.586 188.077 232.93 187.671 233.305 187.312C234.463 186.422 237.231 184.892 242.815 184.47C243.347 184.423 243.879 184.408 244.411 184.408C247.93 184.408 251.324 185.251 253.592 185.953C254.672 187.28 254.672 189.513 254.672 192.886C254.64 200.583 251.856 200.755 245.615 200.755Z" fill="#212121"/>
<path d="M194.046 385.037V401.447C194.046 406.115 198.269 409.909 203.493 409.909H255.688C260.897 409.909 265.12 406.115 265.12 401.447V385.037H194.046Z" fill="#25242E"/>
<path d="M257.237 525.353L265.386 394.905C265.386 386.427 258.066 379.557 249.025 379.557C239.984 379.557 232.664 386.427 232.664 394.905L240.813 525.353H257.237Z" fill="#383746"/>
<path d="M221.34 525.353L229.505 394.905C229.505 386.427 222.169 379.557 213.144 379.557C204.119 379.557 196.783 386.427 196.783 394.905L204.932 525.353H221.34Z" fill="#383746"/>
<path d="M220.98 520.7H205.464C205.464 520.7 190.198 551.208 198.191 551.208C204.478 551.208 218.524 551.208 228.269 551.208C235.683 551.208 221.496 522.87 221.496 522.87L220.98 520.7Z" fill="#CA9E67"/>
<path d="M230.381 548.445C227.284 545.915 221.606 542.574 213.206 542.574C204.666 542.574 198.957 546.025 195.891 548.554C196.032 550.193 196.72 551.193 198.159 551.193C201.554 551.193 207.2 551.193 213.206 551.193C218.352 551.193 223.749 551.193 228.253 551.193C229.677 551.193 230.302 550.147 230.381 548.445Z" fill="#571D10"/>
<path d="M223.592 491.332H202.852L204.604 525.587L221.997 525.868L223.592 491.332Z" fill="#CA9E67"/>
<path d="M217.883 528.319C217.883 528.319 217.93 505.399 223.013 490.941C224.218 487.538 219.447 485.492 213.848 485.492C209.374 485.492 201.96 486.054 203.446 490.941C205.276 496.999 210.281 510.13 207.044 528.319C207.044 528.319 212.628 531.91 217.883 528.319Z" fill="#9E664A"/>
<path d="M218.9 527.851C217.852 527.711 216.851 527.43 215.865 527.086C214.896 526.758 213.926 526.368 212.987 525.915C212.033 525.478 211.11 524.978 210.203 524.432C209.296 523.885 208.405 523.292 207.576 522.543C208.624 522.683 209.625 522.98 210.61 523.308C211.58 523.636 212.55 524.026 213.504 524.463C214.442 524.9 215.365 525.4 216.288 525.946C217.164 526.524 218.055 527.117 218.9 527.851Z" fill="#3D1102"/>
<path d="M207.56 527.851C208.404 527.117 209.296 526.524 210.188 525.962C211.095 525.415 212.033 524.916 212.972 524.479C213.91 524.041 214.88 523.651 215.85 523.323C216.835 522.98 217.836 522.699 218.884 522.558C218.04 523.308 217.148 523.901 216.241 524.447C215.334 524.994 214.411 525.494 213.457 525.931C212.502 526.383 211.548 526.758 210.563 527.102C209.609 527.43 208.608 527.711 207.56 527.851Z" fill="#571D10"/>
<path d="M219.557 521.809C218.415 521.668 217.304 521.387 216.209 521.059C215.115 520.716 214.051 520.341 212.972 519.904C211.924 519.467 210.876 518.967 209.859 518.421C208.842 517.874 207.826 517.281 206.872 516.531C208.029 516.672 209.124 516.953 210.219 517.281C211.314 517.624 212.393 517.999 213.441 518.452C214.505 518.889 215.537 519.389 216.554 519.935C217.602 520.466 218.603 521.059 219.557 521.809Z" fill="#3D1102"/>
<path d="M206.887 521.809C207.841 521.059 208.858 520.466 209.875 519.92C210.892 519.373 211.939 518.873 212.987 518.436C214.051 517.983 215.13 517.609 216.225 517.265C217.32 516.937 218.431 516.656 219.572 516.516C218.618 517.25 217.602 517.859 216.585 518.405C215.568 518.952 214.52 519.451 213.472 519.888C212.424 520.325 211.345 520.716 210.235 521.044C209.14 521.387 208.045 521.668 206.887 521.809Z" fill="#571D10"/>
<path d="M220.12 515.282C218.884 515.142 217.695 514.861 216.507 514.517C215.318 514.19 214.145 513.799 213.003 513.362C211.845 512.925 210.719 512.425 209.609 511.879C208.483 511.332 207.388 510.723 206.324 509.99C207.575 510.13 208.764 510.411 209.937 510.739C211.126 511.083 212.283 511.457 213.441 511.91C214.583 512.347 215.725 512.847 216.835 513.393C217.961 513.924 219.056 514.533 220.12 515.282Z" fill="#3D1102"/>
<path d="M206.324 515.282C207.388 514.533 208.483 513.924 209.609 513.393C210.719 512.847 211.861 512.347 213.003 511.91C214.145 511.457 215.318 511.083 216.507 510.739C217.695 510.411 218.884 510.13 220.12 509.99C219.056 510.739 217.961 511.348 216.835 511.879C215.725 512.425 214.583 512.925 213.441 513.362C212.283 513.799 211.126 514.19 209.937 514.517C208.764 514.861 207.56 515.142 206.324 515.282Z" fill="#571D10"/>
<path d="M220.511 508.756C219.213 508.616 217.946 508.335 216.71 508.007C215.459 507.679 214.239 507.288 213.019 506.851C211.799 506.414 210.61 505.915 209.421 505.352C208.232 504.806 207.059 504.213 205.933 503.448C207.231 503.573 208.483 503.869 209.734 504.197C210.985 504.525 212.205 504.915 213.425 505.352C214.63 505.79 215.834 506.289 217.023 506.836C218.212 507.398 219.385 508.007 220.511 508.756Z" fill="#3D1102"/>
<path d="M205.949 508.756C207.075 508.007 208.248 507.398 209.437 506.851C210.625 506.289 211.83 505.805 213.034 505.368C214.254 504.915 215.474 504.541 216.726 504.213C217.961 503.885 219.228 503.588 220.526 503.463C219.4 504.213 218.227 504.822 217.054 505.368C215.865 505.93 214.661 506.43 213.457 506.867C212.237 507.304 211.017 507.694 209.765 508.022C208.498 508.335 207.247 508.616 205.949 508.756Z" fill="#571D10"/>
<path d="M221.058 502.261C219.682 502.136 218.337 501.855 216.992 501.527C215.662 501.184 214.332 500.809 213.034 500.372C211.736 499.935 210.438 499.435 209.155 498.889C207.873 498.342 206.621 497.733 205.386 496.984C206.778 497.109 208.123 497.39 209.468 497.733C210.798 498.061 212.127 498.451 213.425 498.889C214.739 499.326 216.022 499.825 217.304 500.372C218.571 500.918 219.838 501.512 221.058 502.261Z" fill="#3D1102"/>
<path d="M205.386 502.261C206.621 501.512 207.888 500.918 209.171 500.356C210.453 499.81 211.752 499.31 213.05 498.873C214.348 498.42 215.678 498.045 217.007 497.718C218.337 497.39 219.697 497.109 221.074 496.968C219.854 497.718 218.587 498.326 217.304 498.873C216.022 499.419 214.739 499.919 213.425 500.356C212.127 500.809 210.798 501.184 209.468 501.512C208.123 501.839 206.762 502.136 205.386 502.261Z" fill="#571D10"/>
<path d="M221.965 532.847C220.558 532.004 219.134 531.27 217.68 530.786C216.209 530.318 214.723 530.068 213.238 530.099C211.736 530.099 210.25 530.38 208.78 530.849C207.309 531.333 205.886 531.973 204.478 532.847C205.651 531.489 207.075 530.521 208.545 529.834C210.031 529.131 211.626 528.757 213.222 528.741C214.817 528.741 216.428 529.069 217.914 529.787C219.416 530.474 220.792 531.52 221.965 532.847Z" fill="#571D10"/>
<path d="M256.877 520.7H241.361C241.361 520.7 226.095 551.208 234.072 551.208C240.375 551.208 254.406 551.208 264.15 551.208C271.58 551.208 257.378 522.87 257.378 522.87L256.877 520.7Z" fill="#CA9E67"/>
<path d="M266.262 548.445C263.165 545.915 257.487 542.574 249.088 542.574C240.563 542.574 234.838 546.025 231.773 548.554C231.929 550.193 232.602 551.193 234.041 551.193C237.45 551.193 243.081 551.193 249.088 551.193C254.234 551.193 259.645 551.193 264.135 551.193C265.574 551.193 266.184 550.147 266.262 548.445Z" fill="#571D10"/>
<path d="M259.473 491.332H238.749L240.485 525.587L257.862 525.868L259.473 491.332Z" fill="#CA9E67"/>
<path d="M253.764 528.319C253.764 528.319 253.811 505.399 258.895 490.941C260.084 487.538 255.329 485.492 249.729 485.492C245.256 485.492 237.857 486.054 239.343 490.941C241.173 496.999 246.163 510.13 242.941 528.319C242.941 528.319 248.509 531.91 253.764 528.319Z" fill="#9E664A"/>
<path d="M254.781 527.851C253.733 527.711 252.732 527.43 251.747 527.086C250.777 526.758 249.807 526.368 248.853 525.915C247.915 525.478 246.992 524.978 246.085 524.432C245.177 523.885 244.286 523.292 243.457 522.543C244.505 522.683 245.506 522.98 246.476 523.308C247.461 523.636 248.415 524.026 249.369 524.463C250.323 524.9 251.246 525.4 252.153 525.946C253.045 526.524 253.937 527.117 254.781 527.851Z" fill="#3D1102"/>
<path d="M243.457 527.851C244.286 527.117 245.177 526.524 246.085 525.962C247.007 525.415 247.93 524.916 248.853 524.479C249.807 524.041 250.777 523.651 251.747 523.323C252.732 522.98 253.733 522.699 254.781 522.558C253.937 523.308 253.045 523.901 252.138 524.447C251.231 524.994 250.308 525.494 249.354 525.931C248.415 526.383 247.445 526.758 246.46 527.102C245.506 527.43 244.489 527.711 243.457 527.851Z" fill="#571D10"/>
<path d="M255.454 521.809C254.296 521.668 253.186 521.387 252.106 521.059C251.012 520.716 249.932 520.341 248.869 519.904C247.805 519.467 246.773 518.967 245.756 518.421C244.739 517.874 243.723 517.281 242.769 516.531C243.91 516.672 245.021 516.953 246.116 517.281C247.195 517.624 248.274 517.999 249.338 518.452C250.402 518.889 251.449 519.389 252.451 519.935C253.483 520.466 254.484 521.059 255.454 521.809Z" fill="#3D1102"/>
<path d="M242.769 521.809C243.738 521.059 244.739 520.466 245.756 519.92C246.773 519.373 247.821 518.873 248.869 518.436C249.932 517.983 250.996 517.609 252.091 517.265C253.186 516.937 254.281 516.656 255.438 516.516C254.468 517.25 253.452 517.859 252.435 518.405C251.418 518.952 250.37 519.451 249.322 519.888C248.259 520.325 247.179 520.716 246.1 521.044C245.021 521.387 243.926 521.668 242.769 521.809Z" fill="#571D10"/>
<path d="M256.001 515.282C254.765 515.142 253.561 514.861 252.388 514.517C251.215 514.19 250.042 513.799 248.884 513.362C247.727 512.925 246.616 512.425 245.49 511.879C244.364 511.332 243.269 510.723 242.205 509.99C243.457 510.13 244.645 510.411 245.834 510.739C247.007 511.083 248.18 511.457 249.338 511.91C250.48 512.347 251.606 512.847 252.732 513.393C253.843 513.924 254.938 514.533 256.001 515.282Z" fill="#3D1102"/>
<path d="M242.205 515.282C243.285 514.533 244.38 513.924 245.49 513.393C246.616 512.847 247.742 512.347 248.884 511.91C250.026 511.457 251.215 511.083 252.388 510.739C253.561 510.411 254.765 510.13 256.001 509.99C254.938 510.739 253.843 511.348 252.716 511.879C251.59 512.425 250.464 512.925 249.322 513.362C248.165 513.799 246.992 514.19 245.819 514.517C244.645 514.861 243.457 515.142 242.205 515.282Z" fill="#571D10"/>
<path d="M256.392 508.756C255.094 508.616 253.843 508.335 252.591 508.007C251.356 507.679 250.12 507.288 248.9 506.851C247.68 506.414 246.491 505.915 245.302 505.352C244.114 504.806 242.941 504.213 241.814 503.448C243.113 503.573 244.364 503.869 245.615 504.197C246.867 504.525 248.087 504.915 249.291 505.352C250.511 505.79 251.715 506.289 252.904 506.836C254.093 507.398 255.266 508.007 256.392 508.756Z" fill="#3D1102"/>
<path d="M241.83 508.756C242.956 508.007 244.129 507.398 245.318 506.851C246.507 506.289 247.696 505.805 248.916 505.368C250.12 504.915 251.356 504.541 252.607 504.213C253.858 503.885 255.11 503.588 256.408 503.463C255.282 504.213 254.109 504.822 252.935 505.368C251.747 505.93 250.558 506.43 249.322 506.867C248.118 507.304 246.882 507.694 245.647 508.022C244.38 508.335 243.128 508.616 241.83 508.756Z" fill="#571D10"/>
<path d="M256.955 502.261C255.563 502.136 254.218 501.855 252.888 501.527C251.559 501.184 250.229 500.809 248.916 500.372C247.617 499.935 246.319 499.435 245.037 498.889C243.754 498.342 242.487 497.733 241.267 496.984C242.643 497.109 244.004 497.39 245.334 497.733C246.679 498.061 247.993 498.451 249.307 498.889C250.605 499.326 251.903 499.825 253.186 500.372C254.453 500.918 255.72 501.512 256.955 502.261Z" fill="#3D1102"/>
<path d="M241.267 502.261C242.487 501.512 243.754 500.918 245.037 500.356C246.319 499.81 247.602 499.31 248.916 498.873C250.214 498.42 251.543 498.045 252.888 497.718C254.218 497.39 255.563 497.109 256.955 496.968C255.735 497.718 254.453 498.326 253.17 498.873C251.903 499.419 250.605 499.919 249.291 500.356C247.993 500.809 246.663 501.184 245.318 501.512C244.004 501.839 242.643 502.136 241.267 502.261Z" fill="#571D10"/>
<path d="M257.862 532.847C256.439 532.004 255.031 531.27 253.561 530.786C252.106 530.318 250.605 530.068 249.135 530.099C247.633 530.099 246.147 530.38 244.677 530.849C243.222 531.333 241.783 531.973 240.375 532.847C241.548 531.489 242.956 530.521 244.442 529.834C245.928 529.131 247.523 528.757 249.135 528.741C250.73 528.741 252.341 529.069 253.827 529.787C255.313 530.474 256.674 531.52 257.862 532.847Z" fill="#571D10"/>
<path d="M310.699 338.166L257.988 345.848L257.237 335.762L304.02 326.659L310.699 338.166Z" fill="#F6C793"/>
<path d="M248.087 337.558C248.962 337.495 249.604 336.746 249.541 335.871C249.479 335.013 248.728 334.357 247.852 334.419L234.917 335.356C234.056 335.419 233.399 336.184 233.462 337.042C233.524 337.901 234.275 338.557 235.151 338.494L248.087 337.558Z" fill="#F6C793"/>
<path d="M253.045 335.356C253.983 335.903 257.44 335.606 257.972 333.998L250.323 329.501C249.385 328.955 248.29 329.251 247.852 330.173C247.43 331.094 247.852 332.28 248.775 332.811L253.045 335.356Z" fill="#F6C793"/>
<path d="M248.306 341.008C249.181 340.946 249.823 340.196 249.76 339.337C249.698 338.479 248.931 337.823 248.071 337.885L233.149 338.978C232.289 339.041 231.632 339.79 231.694 340.665C231.757 341.523 232.523 342.179 233.384 342.117L248.306 341.008Z" fill="#F6C793"/>
<path d="M248.587 344.443C249.447 344.38 250.104 343.631 250.042 342.772C249.979 341.914 249.228 341.258 248.352 341.32L234.604 342.335C233.743 342.398 233.086 343.147 233.149 344.021C233.212 344.88 233.962 345.536 234.838 345.473L248.587 344.443Z" fill="#F6C793"/>
<path d="M249.088 347.253C249.776 347.206 250.292 346.613 250.245 345.911C250.182 345.224 249.588 344.708 248.9 344.755L238.092 345.551C237.403 345.598 236.887 346.192 236.934 346.879C236.981 347.566 237.591 348.081 238.279 348.034L249.088 347.253Z" fill="#F6C793"/>
<path d="M245.271 334.622L257.08 333.748C257.878 333.686 258.551 334.201 258.613 334.888L259.38 345.239C259.427 345.926 258.832 346.535 258.034 346.582L246.225 347.456L245.271 334.622Z" fill="#F6C793"/>
<path d="M199.52 244.331V275.167L169.223 332.421L148.623 338.166L199.52 244.331Z" fill="#F6C793"/>
<path d="M148.623 338.166L201.35 345.848L202.085 335.762L155.318 326.659L148.623 338.166Z" fill="#F6C793"/>
<path d="M211.251 337.558C210.391 337.495 209.734 336.746 209.796 335.871C209.859 335.013 210.61 334.357 211.486 334.419L224.421 335.356C225.297 335.419 225.938 336.184 225.876 337.042C225.813 337.901 225.062 338.557 224.187 338.494L211.251 337.558Z" fill="#F6C793"/>
<path d="M206.293 335.356C205.354 335.903 201.898 335.606 201.366 333.998L209.014 329.501C209.953 328.955 211.048 329.251 211.486 330.173C211.924 331.094 211.501 332.28 210.563 332.811L206.293 335.356Z" fill="#F6C793"/>
<path d="M211.032 341.008C210.172 340.946 209.515 340.196 209.577 339.337C209.64 338.479 210.391 337.823 211.267 337.885L226.189 338.978C227.049 339.041 227.706 339.79 227.643 340.665C227.581 341.523 226.83 342.179 225.97 342.117L211.032 341.008Z" fill="#F6C793"/>
<path d="M210.751 344.443C209.875 344.38 209.218 343.631 209.296 342.772C209.359 341.914 210.109 341.258 210.97 341.32L224.734 342.335C225.594 342.398 226.251 343.147 226.189 344.021C226.126 344.88 225.375 345.536 224.499 345.473L210.751 344.443Z" fill="#F6C793"/>
<path d="M210.25 347.253C209.562 347.206 209.046 346.613 209.093 345.911C209.14 345.224 209.75 344.708 210.438 344.755L221.246 345.551C221.934 345.598 222.45 346.192 222.388 346.879C222.341 347.566 221.747 348.081 221.058 348.034L210.25 347.253Z" fill="#F6C793"/>
<path d="M214.067 334.622L202.257 333.748C201.475 333.686 200.787 334.201 200.74 334.888L199.974 345.239C199.927 345.926 200.537 346.535 201.319 346.582L213.128 347.456L214.067 334.622Z" fill="#F6C793"/>
<path d="M200.115 204.689C199.035 202.316 198.191 199.927 197.549 197.554C197.315 197.554 196.642 197.554 196.392 197.554C195.125 197.554 194.233 195.352 193.874 194.275C193.045 191.839 192.685 189.919 192.56 188.842C192.403 187.483 192.826 185.173 194.546 185.173C194.609 185.173 194.656 185.188 194.718 185.204C194.718 183.283 194.718 181.207 194.718 179.958C194.593 170.855 196.142 164.048 198.613 158.958C198.613 158.942 198.613 158.927 198.629 158.927C198.629 158.927 190.495 162.268 190.495 174.79C190.495 182.534 190.495 197.757 190.495 211.184C190.495 230.357 200.302 251.56 194.405 262.239C194.405 262.239 221.449 267.36 223.014 227.765C219.823 226.875 216.601 224.986 212.596 221.614C203.446 213.901 201.444 207.562 200.115 204.689Z" fill="#52240F"/>
<path d="M386.857 360.977H63.1588V372.672H386.857V360.977Z" fill="#3C3C3B"/>
<path d="M386.857 342.491H63.1588V360.977H386.857V342.491Z" fill="#DADADA"/>
<path d="M386.857 348.221H63.1588V349.377H386.857V348.221Z" fill="#C6C6C6"/>
<path d="M386.857 344.24H63.1588V346.036H386.857V344.24Z" fill="#C6C6C6"/>
<path d="M386.857 357.261H63.1588V358.417H386.857V357.261Z" fill="#C6C6C6"/>
<path d="M386.857 352.374H63.1588V352.89H386.857V352.374Z" fill="#C6C6C6"/>
<path d="M386.857 346.691H63.1588V347.206H386.857V346.691Z" fill="#C6C6C6"/>
<path d="M386.857 343.131H63.1588V343.647H386.857V343.131Z" fill="#C6C6C6"/>
<path d="M386.857 358.854H63.1588V359.369H386.857V358.854Z" fill="#C6C6C6"/>
<path d="M386.857 359.822H63.1588V360.337H386.857V359.822Z" fill="#C6C6C6"/>
<path d="M386.857 353.78H63.1588V354.31H386.857V353.78Z" fill="#C6C6C6"/>
<path d="M386.857 355.684H63.1588V356.2H386.857V355.684Z" fill="#C6C6C6"/>
<path d="M386.857 350.142H63.1588V351.11H386.857V350.142Z" fill="#C6C6C6"/>
<path d="M119.28 360.977H107.565V544.151H119.28V360.977Z" fill="#333332"/>
<path d="M116.824 544.151H109.676V551.614H116.824V544.151Z" fill="#9D9D9C"/>
<path d="M123.05 558H104.233L109.676 551.599H116.824L123.05 558Z" fill="#333332"/>
<path d="M340.34 360.977H328.624V544.151H340.34V360.977Z" fill="#333332"/>
<path d="M337.899 544.151H330.751V551.614H337.899V544.151Z" fill="#9D9D9C"/>
<path d="M344.125 558H325.308L330.751 551.599H337.899L344.125 558Z" fill="#333332"/>
<path d="M316.33 311.327C316.33 315.512 312.936 318.915 308.728 318.915H150.266C146.074 318.915 142.664 315.527 142.664 311.327V223.05C142.664 218.866 146.058 215.462 150.266 215.462H308.744C312.936 215.462 316.346 218.85 316.346 223.05V311.327H316.33Z" fill="#B2B2B2"/>
<path d="M266.653 336.199H192.341L207.794 270.062H251.199L266.653 336.199Z" fill="#DADADA"/>
<path d="M277.258 335.809H181.72V342.491H277.258V335.809Z" fill="#B2B2B2"/>
</g>
<defs>
<clipPath id="clip0_1_1780">
<rect width="448" height="558" fill="white" transform="translate(1)"/>
</clipPath>
</defs>
</svg>
