<svg width="155" height="54" viewBox="0 0 155 54" fill="none" xmlns="http://www.w3.org/2000/svg">
<rect width="45" height="53" fill="#FF6300"/>
<path d="M12.7171 43H5.3143L16.5939 10.3257H25.4964L36.7601 43H29.3573L21.1728 17.7923H20.9175L12.7171 43ZM12.2544 30.1568H29.7402V35.5494H12.2544V30.1568Z" fill="white"/>
<path d="M49.7122 43V18.4943H56.1896V22.8179H56.4768C56.9874 21.382 57.8382 20.2493 59.0295 19.4196C60.2207 18.59 61.646 18.1752 63.3052 18.1752C64.9857 18.1752 66.4163 18.5953 67.5969 19.4356C68.7775 20.2652 69.5646 21.3926 69.9582 22.8179H70.2134C70.7133 21.4139 71.6174 20.2918 72.9256 19.4515C74.2445 18.6006 75.8027 18.1752 77.6002 18.1752C79.887 18.1752 81.743 18.9038 83.1683 20.3609C84.6041 21.8074 85.3221 23.8602 85.3221 26.5193V43H78.5415V27.8594C78.5415 26.498 78.1799 25.4769 77.4566 24.7962C76.7334 24.1155 75.8293 23.7751 74.7444 23.7751C73.5106 23.7751 72.5481 24.1687 71.8567 24.9558C71.1654 25.7322 70.8197 26.7586 70.8197 28.0349V43H64.2306V27.7158C64.2306 26.514 63.8849 25.5567 63.1936 24.8441C62.5128 24.1315 61.6141 23.7751 60.4973 23.7751C59.7421 23.7751 59.0614 23.9666 58.4551 24.3495C57.8595 24.7218 57.3862 25.2482 57.0352 25.929C56.6842 26.599 56.5087 27.3861 56.5087 28.2902V43H49.7122ZM90.6907 43V18.4943H97.4872V43H90.6907ZM94.1049 15.3353C93.0945 15.3353 92.2276 15.0003 91.5044 14.3302C90.7917 13.6495 90.4354 12.8358 90.4354 11.8892C90.4354 10.9532 90.7917 10.1502 91.5044 9.48014C92.2276 8.79942 93.0945 8.45907 94.1049 8.45907C95.1153 8.45907 95.9769 8.79942 96.6895 9.48014C97.4127 10.1502 97.7744 10.9532 97.7744 11.8892C97.7744 12.8358 97.4127 13.6495 96.6895 14.3302C95.9769 15.0003 95.1153 15.3353 94.1049 15.3353ZM109.728 28.8326V43H102.932V18.4943H109.409V22.8179H109.696C110.239 21.3926 111.148 20.2652 112.424 19.4356C113.701 18.5953 115.248 18.1752 117.067 18.1752C118.769 18.1752 120.253 18.5475 121.518 19.292C122.784 20.0365 123.768 21.1001 124.47 22.4828C125.172 23.8549 125.523 25.4929 125.523 27.3968V43H118.726V28.6093C118.737 27.1096 118.354 25.9396 117.578 25.0993C116.801 24.2484 115.732 23.823 114.371 23.823C113.456 23.823 112.648 24.0198 111.946 24.4133C111.254 24.8068 110.712 25.3812 110.318 26.1364C109.935 26.8809 109.739 27.7797 109.728 28.8326ZM137.867 43.4627C136.304 43.4627 134.911 43.1915 133.687 42.649C132.464 42.0959 131.496 41.2823 130.784 40.208C130.082 39.1231 129.731 37.7723 129.731 36.1556C129.731 34.7942 129.981 33.6508 130.481 32.7255C130.98 31.8001 131.661 31.0556 132.523 30.4919C133.384 29.9282 134.363 29.5027 135.458 29.2155C136.564 28.9284 137.724 28.7263 138.936 28.6093C140.362 28.4604 141.51 28.3221 142.382 28.1945C143.255 28.0562 143.887 27.8541 144.281 27.5882C144.675 27.3223 144.871 26.9288 144.871 26.4076V26.3119C144.871 25.3014 144.552 24.5197 143.914 23.9666C143.287 23.4135 142.393 23.137 141.234 23.137C140.011 23.137 139.037 23.4082 138.314 23.9506C137.591 24.4824 137.112 25.1525 136.878 25.9609L130.592 25.4503C130.911 23.9613 131.539 22.6743 132.475 21.5894C133.411 20.4939 134.618 19.6536 136.096 19.0686C137.586 18.473 139.309 18.1752 141.266 18.1752C142.627 18.1752 143.93 18.3347 145.174 18.6538C146.429 18.9729 147.541 19.4675 148.509 20.1376C149.487 20.8076 150.259 21.6692 150.822 22.7222C151.386 23.7645 151.668 25.0143 151.668 26.4714V43H145.222V39.6017H145.031C144.637 40.3676 144.111 41.0429 143.451 41.6279C142.792 42.2023 142 42.6543 141.074 42.984C140.149 43.3031 139.08 43.4627 137.867 43.4627ZM139.814 38.7721C140.814 38.7721 141.696 38.5754 142.462 38.1818C143.228 37.7776 143.829 37.2352 144.265 36.5545C144.701 35.8738 144.919 35.1027 144.919 34.2411V31.6406C144.706 31.7789 144.414 31.9065 144.042 32.0235C143.68 32.1298 143.271 32.2309 142.813 32.3266C142.356 32.4117 141.898 32.4915 141.441 32.5659C140.984 32.6297 140.569 32.6882 140.197 32.7414C139.399 32.8584 138.702 33.0446 138.107 33.2998C137.511 33.5551 137.048 33.9008 136.719 34.3368C136.389 34.7623 136.224 35.2941 136.224 35.9323C136.224 36.8576 136.559 37.5649 137.229 38.0542C137.91 38.5328 138.771 38.7721 139.814 38.7721Z" fill="black"/>
</svg>
